<?xml version="1.0" standalone="no"?>
<!DOCTYPE svg PUBLIC "-//W3C//DTD SVG 1.1//EN" "http://www.w3.org/Graphics/SVG/1.1/DTD/svg11.dtd" >
<svg xmlns="http://www.w3.org/2000/svg" xmlns:xlink="http://www.w3.org/1999/xlink" version="1.1">
<metadata>
Created by FontForge 20161116 at Mon Jun 13 17:30:52 2011
 By Jimmy Wärting
Designed by Christian Schwartz 2004?2010. Originally designed 1957-1961 by Max Miedinger with art direction by Eduard Hoffmann. Released as Neue Haas Grotesk by the Haas'sche Schriftgiesserei, and then revised and released as Helvetica by Linotype AG. Revival originally commissioned in 2004 by Mark Porter at The Guardian. Completed in 2010 for Richard Turley at Bloomberg Businessweek. Thinnest weight designed by Berton Hasebe.
</metadata>
<defs>
<font id="NeueHaasGroteskDispXLight" horiz-adv-x="155" >
  <font-face 
    font-family="NeueHaasGroteskDisp XLight"
    font-weight="200"
    font-stretch="normal"
    units-per-em="1000"
    panose-1="2 0 5 6 0 0 0 2 0 3"
    ascent="800"
    descent="-200"
    x-height="517"
    cap-height="715"
    bbox="-186 -204 1090 912"
    underline-thickness="20"
    underline-position="-133"
    unicode-range="U+0020-FB02"
  />
<missing-glyph horiz-adv-x="161" 
 />
    <glyph glyph-name=".notdef" horiz-adv-x="161" 
 />
    <glyph glyph-name="space" unicode=" " horiz-adv-x="161" 
 />
    <glyph glyph-name="exclam" unicode="!" horiz-adv-x="197" 
d="M81 173l-10 313v229h55v-229l-10 -313h-35zM68 0v79h61v-79h-61z" />
    <glyph glyph-name="quotedbl" unicode="&#x22;" horiz-adv-x="262" 
d="M169 501v214h49v-214h-49zM44 501v214h49v-214h-49z" />
    <glyph glyph-name="numbersign" unicode="#" horiz-adv-x="551" 
d="M66 437l7 44h100l29 205h46l-29 -205h150l29 205h46l-29 -205h102l-7 -44h-101l-25 -180h100l-7 -44h-99l-29 -213h-46l29 213h-150l-29 -213h-46l29 213h-102l7 44h101l25 180h-101zM213 437l-25 -180h150l25 180h-150z" />
    <glyph glyph-name="dollar" unicode="$" horiz-adv-x="539" 
d="M253 -85v88c-143 11 -223 103 -228 223h49c4 -104 74 -169 179 -180v300c-129 27 -204 64 -204 176c0 101 84 172 204 177v58h40v-59c116 -11 183 -83 194 -186h-49c-9 85 -66 134 -145 142v-268c120 -24 214 -58 214 -187c0 -110 -87 -194 -214 -197v-87h-40zM456 195
c0 88 -43 116 -163 143v-293c92 5 163 59 163 150zM99 523c0 -78 45 -105 154 -129v261c-97 -5 -154 -59 -154 -132z" />
    <glyph glyph-name="percent" unicode="%" horiz-adv-x="790" 
d="M182 313c-83 0 -148 69 -148 193c0 125 68 193 148 193s148 -65 148 -193c0 -124 -65 -193 -148 -193zM608 -13c-83 0 -148 69 -148 193c0 125 68 193 148 193s148 -65 148 -193c0 -124 -65 -193 -148 -193zM608 26c55 0 101 46 101 154c0 105 -48 154 -101 154
c-54 0 -101 -46 -101 -154c0 -107 47 -154 101 -154zM182 352c55 0 101 46 101 154c0 105 -48 154 -101 154c-54 0 -101 -46 -101 -154c0 -107 47 -154 101 -154zM174 0l396 685h46l-396 -685h-46z" />
    <glyph glyph-name="ampersand" unicode="&#x26;" horiz-adv-x="571" 
d="M246 -13c-121 0 -218 69 -218 190c0 114 77 169 169 219l-16 21c-43 56 -60 94 -60 147c0 78 63 141 147 141c78 0 142 -52 142 -144c0 -89 -68 -134 -144 -175l170 -220c19 44 27 98 30 155h49c0 -72 -15 -141 -46 -198l95 -123h-61l-62 80c-44 -57 -108 -93 -195 -93z
M248 32c72 0 127 32 163 87l-188 243c-75 -40 -141 -90 -141 -185c0 -88 65 -145 166 -145zM173 563c0 -39 11 -68 43 -111l24 -32c80 44 119 80 119 143s-39 98 -91 98s-95 -38 -95 -98z" />
    <glyph glyph-name="quotesingle" unicode="'" horiz-adv-x="137" 
d="M44 501v214h49v-214h-49z" />
    <glyph glyph-name="parenleft" unicode="(" horiz-adv-x="271" 
d="M252 -118h-46c-79 120 -132 265 -132 453c0 174 60 317 132 419h46c-68 -108 -122 -256 -122 -419c0 -179 42 -320 122 -453z" />
    <glyph glyph-name="parenright" unicode=")" horiz-adv-x="271" 
d="M19 754h46c78 -121 132 -265 132 -453c0 -174 -60 -317 -132 -419h-46c67 108 122 255 122 419c0 179 -42 320 -122 453z" />
    <glyph glyph-name="asterisk" unicode="*" horiz-adv-x="354" 
d="M198 715v-120l104 37l13 -34l-103 -37l67 -94l-31 -22l-71 101l-71 -101l-31 22l67 94l-103 37l13 34l104 -37v120h42z" />
    <glyph glyph-name="plus" unicode="+" horiz-adv-x="510" 
d="M56 303v46h174v187h50v-187h174v-46h-174v-190h-50v190h-174z" />
    <glyph glyph-name="comma" unicode="," horiz-adv-x="143" 
d="M40 -94v29c17 7 27 19 27 59v6h-26v79h61v-82c0 -63 -23 -84 -62 -91z" />
    <glyph glyph-name="hyphen" unicode="-" horiz-adv-x="314" 
d="M33 260v44h248v-44h-248z" />
    <glyph glyph-name="period" unicode="." horiz-adv-x="143" 
d="M41 0v79h61v-79h-61z" />
    <glyph glyph-name="slash" unicode="/" horiz-adv-x="368" 
d="M16 0l284 715h52l-284 -715h-52z" />
    <glyph glyph-name="zero" unicode="0" horiz-adv-x="558" 
d="M279 -13c-158 0 -245 138 -245 356c0 221 94 356 246 356c150 0 244 -132 244 -356c0 -218 -86 -356 -245 -356zM280 32c125 0 191 115 191 311c0 191 -71 312 -191 312c-124 0 -193 -116 -193 -312c0 -192 70 -311 193 -311z" />
    <glyph glyph-name="one" unicode="1" horiz-adv-x="315" 
d="M173 0v526h-140v35c112 8 141 26 154 128h37v-689h-51z" />
    <glyph glyph-name="two" unicode="2" horiz-adv-x="496" 
d="M456 0h-424c0 171 112 237 213 301c95 58 164 92 164 203c0 99 -58 150 -146 150c-97 0 -160 -58 -164 -179h-51c0 148 97 224 216 224c122 0 198 -86 198 -193c0 -138 -103 -190 -199 -249c-82 -50 -164 -103 -175 -210h368v-47z" />
    <glyph glyph-name="three" unicode="3" horiz-adv-x="502" 
d="M251 -13c-127 0 -223 85 -223 216h53c5 -111 74 -168 171 -168c108 0 164 63 164 154c0 95 -60 151 -161 151h-51v45h50c85 0 138 53 138 133c0 88 -58 137 -138 137c-99 0 -153 -75 -153 -168h-52c0 121 76 212 207 212c106 0 188 -70 188 -179c0 -80 -39 -128 -96 -152
v-3c81 -31 121 -91 121 -179c0 -121 -86 -199 -218 -199z" />
    <glyph glyph-name="four" unicode="4" horiz-adv-x="518" 
d="M340 0v180h-318v50l323 462h46v-467h101v-45h-101v-180h-51zM77 228v-3h263v376h-2z" />
    <glyph glyph-name="five" unicode="5" horiz-adv-x="484" 
d="M237 -13c-120 0 -209 79 -209 189h51c11 -87 57 -141 157 -141c105 0 162 76 162 184s-62 174 -155 174c-80 0 -123 -31 -148 -70h-49l50 362h326v-46h-286l-34 -253h2c37 33 76 53 148 53c103 0 199 -74 199 -222c0 -133 -82 -230 -214 -230z" />
    <glyph glyph-name="six" unicode="6" horiz-adv-x="519" 
d="M273 -13c-67 0 -111 21 -150 56c-65 59 -89 160 -89 304c0 198 85 352 248 352c109 0 173 -70 184 -169h-52c-7 72 -55 124 -131 124c-136 0 -200 -137 -197 -340h2c39 79 103 122 186 122c125 0 212 -89 212 -219c0 -131 -83 -230 -213 -230zM271 31
c99 0 162 78 162 185s-63 176 -160 176c-96 0 -169 -76 -169 -180c0 -109 67 -181 167 -181z" />
    <glyph glyph-name="seven" unicode="7" horiz-adv-x="473" 
d="M190 0h-56c21 239 127 488 263 637v2h-374v46h428v-47c-133 -140 -237 -371 -261 -638z" />
    <glyph glyph-name="eight" unicode="8" horiz-adv-x="522" 
d="M261 -13c-126 0 -229 78 -229 203c0 93 54 152 130 180v3c-63 27 -99 80 -99 151c0 101 84 175 197 175c123 0 197 -80 197 -175c0 -71 -39 -122 -102 -149v-3c76 -24 135 -95 135 -182c0 -129 -103 -203 -229 -203zM261 32c109 0 176 70 176 158c0 90 -67 157 -179 157
c-110 0 -173 -67 -173 -157c0 -89 63 -158 176 -158zM258 391c92 0 147 63 147 131c0 71 -52 133 -145 133c-92 0 -145 -62 -145 -133c0 -68 49 -131 143 -131z" />
    <glyph glyph-name="nine" unicode="9" horiz-adv-x="517" 
d="M237 -13c-109 0 -183 66 -190 169h53c7 -76 60 -124 136 -124c50 0 90 15 119 46c56 56 80 152 77 293h-2c-36 -77 -102 -121 -185 -121c-125 0 -212 89 -212 219c0 131 88 230 213 230c67 0 111 -20 150 -55c68 -59 87 -161 87 -305c0 -121 -24 -224 -87 -289
c-40 -42 -93 -63 -159 -63zM246 294c95 0 168 74 168 178c0 110 -66 183 -166 183c-97 0 -162 -79 -162 -185c0 -107 60 -176 160 -176z" />
    <glyph glyph-name="colon" unicode=":" horiz-adv-x="153" 
d="M46 309v79h61v-79h-61zM46 0v79h61v-79h-61z" />
    <glyph glyph-name="semicolon" unicode=";" horiz-adv-x="153" 
d="M45 -94v29c17 7 27 19 27 59v6h-26v79h61v-82c0 -63 -23 -84 -62 -91zM46 309v79h61v-79h-61z" />
    <glyph glyph-name="less" unicode="&#x3c;" horiz-adv-x="491" 
d="M437 117l-387 166v57l387 166v-49l-343 -145v-2l343 -144v-49z" />
    <glyph glyph-name="equal" unicode="=" horiz-adv-x="510" 
d="M56 361v46h398v-46h-398zM56 211v46h398v-46h-398z" />
    <glyph glyph-name="greater" unicode="&#x3e;" horiz-adv-x="491" 
d="M54 506l387 -166v-57l-387 -166v49l343 145v2l-343 144v49z" />
    <glyph glyph-name="question" unicode="?" horiz-adv-x="493" 
d="M247 173h-49c0 115 27 157 101 218c45 37 93 75 93 158c0 85 -58 133 -141 133c-104 0 -163 -72 -166 -165h-51c0 103 68 211 220 211c116 0 191 -77 191 -178c0 -109 -61 -150 -112 -193c-67 -56 -86 -85 -86 -184zM192 0v79h61v-79h-61z" />
    <glyph glyph-name="at" unicode="@" horiz-adv-x="863" 
d="M396 82c-101 0 -161 76 -161 189c0 156 85 253 197 253c65 0 108 -33 131 -80h3l11 72h42l-34 -282c-8 -60 11 -103 62 -103c86 0 129 85 129 211c0 216 -141 327 -327 327c-194 0 -362 -144 -362 -376c0 -210 119 -351 342 -351c71 0 134 17 195 41l15 -38
c-64 -28 -131 -45 -211 -45c-241 0 -387 155 -387 392c0 265 204 419 409 419c194 0 372 -129 372 -369c0 -145 -66 -250 -175 -250c-65 0 -96 42 -101 80h-1c-25 -51 -84 -90 -149 -90zM395 123c108 0 154 98 154 216c0 85 -34 145 -118 145c-93 0 -147 -93 -147 -213
c0 -84 31 -148 111 -148z" />
    <glyph glyph-name="A" unicode="A" horiz-adv-x="624" 
d="M6 0l276 715h59l277 -715h-54l-88 229h-329l-88 -229h-53zM273 557l-109 -284h295l-108 284c-8 20 -18 47 -26 68c-5 12 -9 25 -13 38h-2l-12 -36c-7 -21 -17 -47 -25 -70z" />
    <glyph glyph-name="B" unicode="B" horiz-adv-x="609" 
d="M62 0v715h293c58 0 104 -15 139 -46s55 -75 55 -132c0 -81 -30 -130 -105 -158v-2c84 -27 136 -84 136 -179c0 -60 -17 -107 -51 -141c-36 -35 -91 -57 -163 -57h-304zM114 48h248c57 0 100 17 127 44c25 25 38 61 38 108c0 93 -62 149 -161 149h-252v-301zM114 395h246
c88 0 136 57 136 138c0 88 -55 135 -140 135h-242v-273z" />
    <glyph glyph-name="C" unicode="C" horiz-adv-x="656" 
d="M346 -13c-195 0 -312 149 -312 369s120 373 315 373c141 0 239 -75 267 -210h-52c-20 97 -95 165 -215 165c-176 0 -261 -148 -261 -328c0 -181 85 -323 258 -323c141 0 222 99 235 226h49c-7 -71 -27 -133 -66 -178c-51 -60 -126 -94 -218 -94z" />
    <glyph glyph-name="D" unicode="D" horiz-adv-x="644" 
d="M62 0v715h250c208 0 298 -149 298 -360c0 -210 -97 -355 -305 -355h-243zM114 46h189c173 0 253 120 253 309c0 188 -73 313 -246 313h-196v-622z" />
    <glyph glyph-name="E" unicode="E" horiz-adv-x="582" 
d="M62 0v715h474v-46h-422v-278h388v-45h-388v-298h432v-48h-484z" />
    <glyph glyph-name="F" unicode="F" horiz-adv-x="542" 
d="M62 0v715h454v-46h-402v-275h347v-45h-347v-349h-52z" />
    <glyph glyph-name="G" unicode="G" horiz-adv-x="709" 
d="M615 0l-6 128h-4c-27 -49 -91 -141 -249 -141c-214 0 -322 159 -322 371s121 371 334 371c135 0 245 -68 275 -216h-52c-24 116 -116 171 -223 171c-193 0 -280 -149 -280 -326s81 -325 268 -325c177 0 249 122 249 250v31h-240v46h290v-360h-40z" />
    <glyph glyph-name="H" unicode="H" horiz-adv-x="648" 
d="M62 0v715h52v-313h420v313h52v-715h-52v358h-420v-358h-52z" />
    <glyph glyph-name="I" unicode="I" horiz-adv-x="184" 
d="M66 0v715h52v-715h-52z" />
    <glyph glyph-name="J" unicode="J" horiz-adv-x="460" 
d="M219 -13c-125 0 -197 62 -197 197v38h51v-36c0 -111 51 -152 147 -152c80 0 129 42 129 134v547h52v-551c0 -100 -58 -177 -182 -177z" />
    <glyph glyph-name="K" unicode="K" horiz-adv-x="613" 
d="M62 0v715h52v-399l409 400h69l-305 -295l319 -421h-63l-293 385l-136 -133v-252h-52z" />
    <glyph glyph-name="L" unicode="L" horiz-adv-x="524" 
d="M62 0v715h52v-667h385v-48h-437z" />
    <glyph glyph-name="M" unicode="M" horiz-adv-x="785" 
d="M62 0v715h75l257 -644h2l249 644h78v-715h-51v646h-2c-4 -11 -8 -22 -12 -34c-7 -20 -16 -44 -24 -67l-214 -545h-52l-218 545c-8 19 -17 44 -24 65l-12 36h-2v-646h-50z" />
    <glyph glyph-name="N" unicode="N" horiz-adv-x="649" 
d="M62 0v715h58l332 -505c21 -33 43 -65 58 -92c9 -15 17 -30 25 -43h2v640h50v-715h-55l-328 494c-20 31 -43 66 -60 94c-11 17 -21 33 -30 49h-2v-637h-50z" />
    <glyph glyph-name="O" unicode="O" horiz-adv-x="710" 
d="M354 -13c-195 0 -320 159 -320 371s125 371 320 371s322 -159 322 -371s-127 -371 -322 -371zM354 34c173 0 268 147 268 324s-95 324 -268 324c-174 0 -266 -147 -266 -324s92 -324 266 -324z" />
    <glyph glyph-name="P" unicode="P" horiz-adv-x="575" 
d="M62 0v715h270c80 0 127 -20 166 -57c34 -33 51 -80 51 -139c0 -135 -76 -200 -224 -200h-211v-319h-52zM114 668v-303h207c127 0 175 58 175 153c0 96 -56 150 -168 150h-214z" />
    <glyph glyph-name="Q" unicode="Q" horiz-adv-x="710" 
d="M630 -41l-99 82c-49 -35 -109 -54 -177 -54c-195 0 -320 159 -320 371s125 371 320 371s322 -159 322 -371c0 -119 -40 -218 -108 -286l92 -75zM354 34c55 0 99 14 138 38l-81 68l30 37l90 -74c60 60 91 151 91 255c0 177 -95 324 -268 324c-174 0 -266 -147 -266 -324
s92 -324 266 -324z" />
    <glyph glyph-name="R" unicode="R" horiz-adv-x="615" 
d="M62 0v715h309c132 0 198 -70 198 -191c0 -88 -39 -144 -117 -169v-3c73 -24 98 -80 102 -195c3 -113 18 -146 30 -153v-4h-56c-16 8 -21 36 -26 160c-5 136 -48 171 -158 171h-230v-331h-52zM114 669v-292h240c107 0 162 52 162 145c0 91 -42 147 -151 147h-251z" />
    <glyph glyph-name="S" unicode="S" horiz-adv-x="581" 
d="M302 -13c-179 0 -271 102 -279 239h53c5 -121 92 -193 225 -193c109 0 192 60 192 160c0 104 -55 129 -225 161c-136 24 -219 67 -219 186c0 112 96 189 237 189c145 0 228 -82 239 -199h-52c-11 100 -86 153 -186 153c-117 0 -185 -59 -185 -142c0 -88 57 -115 198 -142
c139 -27 247 -58 247 -202c0 -123 -97 -210 -245 -210z" />
    <glyph glyph-name="T" unicode="T" horiz-adv-x="574" 
d="M17 668v47h540v-47h-244v-668h-52v668h-244z" />
    <glyph glyph-name="U" unicode="U" horiz-adv-x="622" 
d="M308 -11c-156 0 -252 77 -252 236v490h52v-486c0 -140 72 -194 203 -194c123 0 203 54 203 194v486h52v-490c0 -163 -103 -236 -258 -236z" />
    <glyph glyph-name="V" unicode="V" horiz-adv-x="594" 
d="M268 0l-262 715h53l191 -525c9 -27 20 -59 29 -86c5 -16 10 -32 15 -47h2c5 16 11 32 16 49c9 28 20 62 31 89l193 520h52l-265 -715h-55z" />
    <glyph glyph-name="W" unicode="W" horiz-adv-x="857" 
d="M204 0l-193 715h52l132 -494c7 -28 17 -66 24 -98c4 -19 8 -37 13 -56h2c5 18 9 36 13 53c7 31 16 66 23 93l133 502h55l134 -500c7 -27 16 -63 24 -94c4 -17 8 -35 13 -54h2c4 19 8 37 12 55c7 31 16 70 24 99l129 494h50l-190 -715h-56l-140 532c-7 24 -14 54 -19 78
c-3 14 -6 28 -9 43h-2l-9 -42c-5 -24 -12 -55 -19 -79l-140 -532h-58z" />
    <glyph glyph-name="X" unicode="X" horiz-adv-x="573" 
d="M11 0l245 365l-234 350h59l207 -312h2l201 312h58l-230 -351l243 -364h-59l-216 326h-2l-216 -326h-58z" />
    <glyph glyph-name="Y" unicode="Y" horiz-adv-x="579" 
d="M263 0v318l-258 397h57l227 -350h2l227 350h56l-259 -399v-316h-52z" />
    <glyph glyph-name="Z" unicode="Z" horiz-adv-x="573" 
d="M24 0v51l442 616v3h-414v45h475v-48l-443 -618v-3h459v-46h-519z" />
    <glyph glyph-name="bracketleft" unicode="[" horiz-adv-x="282" 
d="M82 -118v872h165v-45h-115v-781h115v-46h-165z" />
    <glyph glyph-name="backslash" unicode="\" horiz-adv-x="368" 
d="M300 0l-284 715h52l284 -715h-52z" />
    <glyph glyph-name="bracketright" unicode="]" horiz-adv-x="282" 
d="M200 754v-872h-165v46h115v781h-115v45h165z" />
    <glyph glyph-name="asciicircum" unicode="^" horiz-adv-x="381" 
d="M65 458h-53l150 257h57l150 -257h-53l-125 217h-2z" />
    <glyph glyph-name="underscore" unicode="_" horiz-adv-x="368" 
d="M-2 -166v41h372v-41h-372z" />
    <glyph glyph-name="grave" unicode="`" horiz-adv-x="500" 
d="M291 588h-44l-101 127h69z" />
    <glyph glyph-name="a" unicode="a" horiz-adv-x="492" 
d="M446 -8c-40 0 -68 22 -68 70v18h-3c-29 -40 -80 -93 -187 -93c-95 0 -165 48 -165 144c0 123 96 148 204 159c122 11 150 19 150 66v18c0 79 -46 112 -130 112c-97 0 -149 -39 -156 -116h-50c11 100 77 158 206 158c116 0 179 -50 179 -157v-304c0 -28 14 -36 33 -36
c6 0 14 2 24 5h3v-36c-8 -4 -20 -8 -40 -8zM193 28c116 0 184 79 184 156v96c-36 -19 -91 -24 -144 -31c-92 -11 -160 -21 -160 -120c0 -73 54 -101 120 -101z" />
    <glyph glyph-name="b" unicode="b" horiz-adv-x="516" 
d="M278 -13c-87 0 -138 34 -177 98h-2v-85h-49v715h49v-297h2c35 65 93 110 181 110c120 0 209 -99 209 -271c0 -155 -80 -270 -213 -270zM276 28c112 0 165 105 165 228c0 139 -59 230 -166 230c-115 0 -181 -99 -181 -230c0 -136 65 -228 182 -228z" />
    <glyph glyph-name="c" unicode="c" horiz-adv-x="472" 
d="M250 -13c-149 0 -225 115 -225 271c0 155 78 270 226 270c108 0 183 -56 199 -160h-48c-17 83 -70 118 -151 118c-125 0 -176 -104 -176 -228s52 -228 175 -228c91 0 149 60 160 145h46c-13 -112 -87 -188 -206 -188z" />
    <glyph glyph-name="d" unicode="d" horiz-adv-x="518" 
d="M243 -13c-139 0 -218 115 -218 270c0 172 97 271 217 271c84 0 142 -38 175 -105h2v292h49v-715h-49v86h-2c-39 -64 -93 -99 -174 -99zM245 28c112 0 179 92 179 228c0 131 -62 230 -178 230c-106 0 -171 -91 -171 -230c0 -124 53 -228 170 -228z" />
    <glyph glyph-name="e" unicode="e" horiz-adv-x="491" 
d="M466 253h-391c0 -124 57 -223 184 -223c94 0 135 54 157 124h47c-21 -96 -88 -167 -204 -167c-152 0 -234 112 -234 271s89 270 230 270c56 0 101 -18 136 -50c57 -53 76 -126 75 -225zM76 293h340c-3 101 -47 193 -161 193c-113 0 -168 -85 -179 -193z" />
    <glyph glyph-name="f" unicode="f" horiz-adv-x="252" 
d="M12 476v41h77v98c0 69 37 104 111 104h31v-43h-28c-51 0 -65 -23 -65 -62v-97h96v-41h-96v-476h-49v476h-77z" />
    <glyph glyph-name="g" unicode="g" horiz-adv-x="517" 
d="M250 -187c-124 0 -191 61 -199 130h49c15 -63 75 -88 148 -88c120 0 170 67 170 159v88h-3c-39 -64 -90 -97 -171 -97c-138 0 -219 105 -219 259c0 172 102 264 222 264c84 0 133 -40 168 -100h3v89h49v-502c0 -59 -17 -106 -51 -142c-39 -39 -91 -60 -166 -60zM246 46
c113 0 176 82 176 217c0 128 -58 223 -173 223c-106 0 -174 -88 -174 -223c0 -123 55 -217 171 -217z" />
    <glyph glyph-name="h" unicode="h" horiz-adv-x="490" 
d="M104 715v-285h2c35 56 92 97 180 97s158 -54 158 -158v-369h-49v364c0 85 -46 121 -118 121c-92 0 -173 -66 -173 -151v-334h-49v715h49z" />
    <glyph glyph-name="i" unicode="i" 
d="M53 0v517h49v-517h-49zM53 635v80h49v-80h-49z" />
    <glyph glyph-name="j" unicode="j" 
d="M-15 -166v42h10c40 0 58 18 58 65v576h49v-577c0 -76 -35 -106 -104 -106h-13zM53 635v80h49v-80h-49z" />
    <glyph glyph-name="k" unicode="k" horiz-adv-x="467" 
d="M407 0l-200 297l-108 -104v-193h-49v715h49v-465l278 267h62l-197 -187l221 -330h-56z" />
    <glyph glyph-name="l" unicode="l" 
d="M53 0v715h49v-715h-49z" />
    <glyph glyph-name="m" unicode="m" horiz-adv-x="777" 
d="M50 0v517h49v-81h2c35 53 80 91 160 91c64 0 120 -31 140 -95h3c35 60 91 95 171 95c85 0 156 -54 156 -158v-369h-49v364c0 85 -46 121 -118 121c-81 0 -149 -51 -149 -151v-334h-49v364c0 85 -49 121 -114 121c-81 0 -153 -66 -153 -151v-334h-49z" />
    <glyph glyph-name="n" unicode="n" horiz-adv-x="485" 
d="M99 517v-87h2c35 56 92 97 180 97s158 -54 158 -158v-369h-49v364c0 85 -46 121 -118 121c-92 0 -173 -66 -173 -151v-334h-49v517h49z" />
    <glyph glyph-name="o" unicode="o" horiz-adv-x="514" 
d="M257 -13c-144 0 -232 115 -232 271c0 155 88 270 232 270c147 0 232 -115 232 -270c0 -156 -85 -271 -232 -271zM257 29c120 0 182 103 182 229s-62 229 -182 229s-182 -103 -182 -229s62 -229 182 -229z" />
    <glyph glyph-name="p" unicode="p" horiz-adv-x="516" 
d="M50 -166v683h49v-99h2c35 67 93 110 181 110c120 0 209 -97 209 -269c0 -155 -80 -270 -213 -270c-87 0 -140 36 -177 96h-2v-251h-49zM276 30c112 0 165 105 165 228c0 139 -59 228 -166 228c-115 0 -181 -99 -181 -230c0 -137 65 -226 182 -226z" />
    <glyph glyph-name="q" unicode="q" horiz-adv-x="518" 
d="M419 -166v252h-2c-39 -64 -94 -97 -175 -97c-139 0 -217 113 -217 268c0 172 100 271 220 271c84 0 137 -40 172 -101h2v90h49v-683h-49zM244 30c112 0 180 89 180 226c0 131 -62 230 -177 230c-106 0 -172 -91 -172 -230c0 -124 52 -226 169 -226z" />
    <glyph glyph-name="r" unicode="r" horiz-adv-x="285" 
d="M99 517v-102h2c19 37 43 65 73 82c31 19 56 23 95 23v-49c-28 1 -52 -3 -73 -12c-56 -25 -97 -84 -97 -160v-299h-49v517h49z" />
    <glyph glyph-name="s" unicode="s" horiz-adv-x="433" 
d="M221 -13c-136 0 -199 80 -204 169h50c7 -85 67 -127 154 -127c88 0 139 43 139 111c0 55 -27 79 -141 105c-107 24 -185 54 -185 145c0 85 77 138 176 138c120 0 171 -63 184 -147h-48c-7 67 -57 104 -136 104c-84 0 -127 -39 -127 -94c0 -59 47 -78 154 -102
c103 -24 172 -52 172 -150c0 -84 -68 -152 -188 -152z" />
    <glyph glyph-name="t" unicode="t" horiz-adv-x="266" 
d="M14 476v41h80v156h49v-156h94v-41h-94v-388c0 -39 14 -50 49 -50c13 0 30 4 39 9h3v-42c-16 -7 -31 -9 -52 -9c-53 0 -88 27 -88 88v392h-80z" />
    <glyph glyph-name="u" unicode="u" horiz-adv-x="479" 
d="M429 0h-49v79h-2c-35 -50 -78 -91 -166 -91c-95 0 -166 57 -166 160v369h49v-364c0 -85 49 -123 126 -123c91 0 159 68 159 160v327h49v-517z" />
    <glyph glyph-name="v" unicode="v" horiz-adv-x="452" 
d="M193 0l-184 517h52l114 -328c9 -27 19 -61 30 -92c5 -17 11 -35 17 -53h2c5 18 11 36 17 53c11 31 21 65 32 92l120 328h50l-189 -517h-61z" />
    <glyph glyph-name="w" unicode="w" horiz-adv-x="695" 
d="M161 0l-147 517h51l88 -320c8 -29 17 -66 24 -97c4 -18 8 -36 13 -55h2c4 18 8 36 13 53c7 31 17 65 24 92l89 327h55l86 -327c7 -27 15 -61 22 -92c4 -17 8 -35 13 -53h2c5 19 9 37 14 55c8 31 19 69 27 97l95 320h49l-158 -517h-59l-90 342c-7 27 -14 57 -19 81l-9 42
h-2l-9 -42c-7 -24 -13 -54 -20 -81l-93 -342h-61z" />
    <glyph glyph-name="x" unicode="x" horiz-adv-x="466" 
d="M9 0l193 275l-173 242h58l143 -207h2l139 207h57l-166 -241l195 -276h-58l-166 241h-2l-165 -241h-57z" />
    <glyph glyph-name="y" unicode="y" horiz-adv-x="455" 
d="M96 -171c-19 0 -28 3 -39 6v44h2c8 -3 18 -5 41 -5c43 0 74 19 93 75l15 43l-198 525h51l126 -342c9 -27 21 -57 30 -84l15 -45h2c5 15 9 30 14 45c8 27 19 57 28 84l120 342h50l-208 -579c-31 -84 -71 -109 -142 -109z" />
    <glyph glyph-name="z" unicode="z" horiz-adv-x="431" 
d="M24 0v45l312 426v3h-290v43h352v-41l-315 -430v-3h323v-43h-382z" />
    <glyph glyph-name="braceleft" unicode="{" horiz-adv-x="282" 
d="M232 -118h-18c-79 0 -121 37 -121 124v222c0 47 -16 70 -69 71v46c53 1 69 24 69 71v214c0 87 42 124 121 124h18v-45h-16c-51 0 -73 -20 -73 -80v-217c0 -52 -17 -78 -56 -89v-2c39 -11 56 -37 56 -89v-225c0 -60 22 -79 73 -79h16v-46z" />
    <glyph glyph-name="bar" unicode="|" horiz-adv-x="201" 
d="M77 -118v872h47v-872h-47z" />
    <glyph glyph-name="braceright" unicode="}" horiz-adv-x="282" 
d="M68 -118h-18v46h16c51 0 73 19 73 79v225c0 52 17 78 56 89v2c-39 11 -56 37 -56 89v217c0 60 -22 80 -73 80h-16v45h18c79 0 121 -37 121 -124v-214c0 -47 16 -70 69 -71v-46c-53 -1 -69 -24 -69 -71v-222c0 -87 -42 -124 -121 -124z" />
    <glyph glyph-name="asciitilde" unicode="~" horiz-adv-x="379" 
d="M255 287c-25 0 -48 12 -71 25c-23 15 -44 28 -61 28c-21 0 -37 -17 -40 -52h-45c5 67 39 98 86 98c28 0 54 -15 77 -30c25 -16 37 -23 53 -23c21 0 39 16 42 51h45c-4 -64 -39 -97 -86 -97z" />
    <glyph glyph-name="Euro" unicode="&#x20ac;" horiz-adv-x="600" 
d="M22 382v41h69c21 165 108 276 247 276c113 0 191 -72 214 -201h-50c-19 100 -68 157 -164 157c-120 0 -179 -96 -195 -232h216v-41h-219c-1 -13 -1 -27 -1 -40c0 -15 0 -29 1 -42h219v-41h-215c16 -132 78 -227 191 -227c115 0 171 94 182 217h49
c-11 -158 -95 -262 -231 -262c-137 0 -223 108 -244 272h-69v41h65c-1 13 -1 27 -1 42c0 13 0 27 1 40h-65z" />
    <glyph glyph-name="quotesinglbase" unicode="&#x201a;" horiz-adv-x="143" 
d="M40 -95v29c17 8 28 20 28 53v13h-26v76h59v-85c0 -51 -20 -79 -61 -86z" />
    <glyph glyph-name="florin" unicode="&#x192;" horiz-adv-x="329" 
d="M44 355v41h88l26 182c11 71 43 107 115 107h38v-43h-38c-47 0 -59 -24 -66 -68l-25 -178h99v-41h-105l-57 -403c-11 -73 -49 -100 -120 -100h-15v43h15c41 0 65 20 71 61l56 399h-82z" />
    <glyph glyph-name="quotedblbase" unicode="&#x201e;" horiz-adv-x="256" 
d="M153 -95v29c17 8 28 20 28 53v13h-26v76h59v-85c0 -51 -20 -79 -61 -86zM40 -95v29c17 8 28 20 28 53v13h-26v76h59v-85c0 -51 -20 -79 -61 -86z" />
    <glyph glyph-name="ellipsis" unicode="&#x2026;" horiz-adv-x="509" 
d="M41 0v79h61v-79h-61zM407 0v79h61v-79h-61zM224 0v79h61v-79h-61z" />
    <glyph glyph-name="dagger" unicode="&#x2020;" horiz-adv-x="496" 
d="M39 471v43h184v201h50v-201h184v-43h-184v-575h-50v575h-184z" />
    <glyph glyph-name="daggerdbl" unicode="&#x2021;" horiz-adv-x="496" 
d="M273 715v-201h184v-43h-184v-331h184v-43h-184v-201h-50v201h-184v43h184v331h-184v43h184v201h50z" />
    <glyph glyph-name="circumflex" unicode="&#x2c6;" horiz-adv-x="500" 
d="M139 592l80 106h62l80 -106h-57l-54 76h-2l-55 -76h-54z" />
    <glyph glyph-name="perthousand" unicode="&#x2030;" horiz-adv-x="1124" 
d="M182 313c-83 0 -148 69 -148 193c0 125 68 193 148 193s148 -65 148 -193c0 -124 -65 -193 -148 -193zM588 -13c-83 0 -148 69 -148 193c0 125 68 193 148 193s148 -65 148 -193c0 -124 -65 -193 -148 -193zM942 -13c-83 0 -148 69 -148 193c0 125 68 193 148 193
s148 -65 148 -193c0 -124 -65 -193 -148 -193zM588 26c55 0 101 46 101 154c0 105 -48 154 -101 154c-54 0 -101 -46 -101 -154c0 -107 47 -154 101 -154zM942 26c55 0 101 46 101 154c0 105 -48 154 -101 154c-54 0 -101 -46 -101 -154c0 -107 47 -154 101 -154zM182 352
c55 0 101 46 101 154c0 105 -48 154 -101 154c-54 0 -101 -46 -101 -154c0 -107 47 -154 101 -154zM164 0l396 685h46l-396 -685h-46z" />
    <glyph glyph-name="Scaron" unicode="&#x160;" horiz-adv-x="581" 
d="M302 -13c-179 0 -271 102 -279 239h53c5 -121 92 -193 225 -193c109 0 192 60 192 160c0 104 -55 129 -225 161c-136 24 -219 67 -219 186c0 112 96 189 237 189c145 0 228 -82 239 -199h-52c-11 100 -86 153 -186 153c-117 0 -185 -59 -185 -142c0 -88 57 -115 198 -142
c139 -27 247 -58 247 -202c0 -123 -97 -210 -245 -210zM410 853l-94 -101h-62l-94 101h59l66 -71h2l67 71h56z" />
    <glyph glyph-name="guilsinglleft" unicode="&#x2039;" horiz-adv-x="254" 
d="M194 126l-134 112v67l134 112v-62l-103 -83v-2l103 -82v-62z" />
    <glyph glyph-name="OE" unicode="&#x152;" horiz-adv-x="1096" 
d="M355 -13c-196 0 -321 159 -321 371s125 371 321 371c113 0 194 -53 241 -138v124h454v-46h-402v-278h378v-45h-378v-298h412v-48h-464v123c-51 -88 -132 -136 -241 -136zM354 34c136 0 242 101 242 241v179c-5 132 -107 228 -242 228c-174 0 -266 -147 -266 -324
s92 -324 266 -324z" />
    <glyph glyph-name="quoteleft" unicode="&#x2018;" horiz-adv-x="143" 
d="M42 546v85c0 51 20 79 61 86v-29c-17 -8 -28 -20 -28 -53v-13h26v-76h-59z" />
    <glyph glyph-name="quoteright" unicode="&#x2019;" horiz-adv-x="143" 
d="M40 544v29c17 8 28 20 28 53v13h-26v76h59v-85c0 -51 -20 -79 -61 -86z" />
    <glyph glyph-name="quotedblleft" unicode="&#x201c;" horiz-adv-x="256" 
d="M42 546v85c0 51 20 79 61 86v-29c-17 -8 -28 -20 -28 -53v-13h26v-76h-59zM155 546v85c0 51 20 79 61 86v-29c-17 -8 -28 -20 -28 -53v-13h26v-76h-59z" />
    <glyph glyph-name="quotedblright" unicode="&#x201d;" horiz-adv-x="256" 
d="M153 544v29c17 8 28 20 28 53v13h-26v76h59v-85c0 -51 -20 -79 -61 -86zM40 544v29c17 8 28 20 28 53v13h-26v76h59v-85c0 -51 -20 -79 -61 -86z" />
    <glyph glyph-name="bullet" unicode="&#x2022;" horiz-adv-x="277" 
d="M139 225c-56 0 -101 45 -101 100s45 101 101 101c55 0 100 -46 100 -101c0 -56 -44 -100 -100 -100z" />
    <glyph glyph-name="endash" unicode="&#x2013;" horiz-adv-x="500" 
d="M0 233v43h500v-43h-500z" />
    <glyph glyph-name="emdash" unicode="&#x2014;" horiz-adv-x="1000" 
d="M100 233v43h800v-43h-800z" />
    <glyph glyph-name="tilde" unicode="&#x2dc;" horiz-adv-x="500" 
d="M308 600c-41 0 -87 43 -117 43c-15 0 -28 -14 -31 -41h-42c5 57 34 84 73 84c42 0 85 -43 115 -43c17 0 30 14 33 41h42c-4 -56 -34 -84 -73 -84z" />
    <glyph glyph-name="trademark" unicode="&#x2122;" horiz-adv-x="634" 
d="M308 429v286h59l79 -236h1l77 236h60v-286h-38v237h-2c-3 -11 -7 -22 -10 -33c-7 -19 -14 -43 -21 -64l-47 -140h-40l-47 140c-7 19 -14 44 -21 63c-3 11 -7 23 -10 34h-2v-237h-38zM34 679v36h226v-36h-93v-250h-40v250h-93z" />
    <glyph glyph-name="scaron" unicode="&#x161;" horiz-adv-x="433" 
d="M221 -13c-136 0 -199 80 -204 169h50c7 -85 67 -127 154 -127c88 0 139 43 139 111c0 55 -27 79 -141 105c-107 24 -185 54 -185 145c0 85 77 138 176 138c120 0 171 -63 184 -147h-48c-7 67 -57 104 -136 104c-84 0 -127 -39 -127 -94c0 -59 47 -78 154 -102
c103 -24 172 -52 172 -150c0 -84 -68 -152 -188 -152zM329 698l-80 -106h-62l-80 106h57l54 -76h2l55 76h54z" />
    <glyph glyph-name="guilsinglright" unicode="&#x203a;" horiz-adv-x="254" 
d="M60 417l134 -112v-67l-134 -112v62l103 83v2l-103 82v62z" />
    <glyph glyph-name="oe" unicode="&#x153;" horiz-adv-x="905" 
d="M257 -13c-144 0 -232 115 -232 271c0 155 88 270 232 270c104 0 175 -57 207 -148c33 92 104 148 205 148c56 0 101 -18 136 -50c57 -53 76 -126 75 -225h-391c0 -124 57 -223 184 -223c94 0 135 54 157 124h47c-21 -96 -88 -167 -204 -167c-108 0 -178 56 -209 147
c-33 -91 -103 -147 -207 -147zM257 29c120 0 182 103 182 229s-62 229 -182 229s-182 -103 -182 -229s62 -229 182 -229zM490 293h340c-3 101 -47 193 -161 193c-113 0 -168 -85 -179 -193z" />
    <glyph glyph-name="Ydieresis" unicode="&#x178;" horiz-adv-x="579" 
d="M263 0v318l-258 397h57l227 -350h2l227 350h56l-259 -399v-316h-52zM189 755v80h49v-80h-49zM340 755v80h49v-80h-49z" />
    <glyph glyph-name="uni00A0" unicode="&#xa0;" horiz-adv-x="161" 
 />
    <glyph glyph-name="exclamdown" unicode="&#xa1;" horiz-adv-x="197" 
d="M116 415l10 -313v-229h-55v229l10 313h35zM129 588v-79h-61v79h61z" />
    <glyph glyph-name="cent" unicode="&#xa2;" horiz-adv-x="479" 
d="M230 -85v73c-135 11 -204 122 -204 270c0 147 70 258 204 269v64h40v-64c99 -7 166 -60 181 -159h-48c-16 76 -62 112 -133 117v-454c80 8 130 64 141 144h46c-13 -107 -79 -179 -187 -187v-73h-40zM76 258c0 -117 46 -216 154 -227v454c-109 -13 -154 -110 -154 -227z
" />
    <glyph glyph-name="sterling" unicode="&#xa3;" horiz-adv-x="524" 
d="M37 313v42h69c-19 47 -37 94 -37 150c0 99 66 194 207 194c118 0 203 -80 206 -211h-49c-3 119 -77 167 -160 167c-100 0 -153 -62 -153 -151c0 -49 20 -98 39 -149h171v-42h-157c7 -27 12 -52 12 -79c0 -74 -24 -131 -71 -172l1 -2c24 13 41 20 70 20
c72 0 114 -45 180 -45c41 0 75 22 103 49l28 -37c-39 -35 -73 -57 -134 -57c-91 0 -109 48 -189 48c-40 0 -77 -23 -108 -43l-29 44c64 47 102 103 102 188c0 29 -6 58 -17 86h-84z" />
    <glyph glyph-name="currency" unicode="&#xa4;" horiz-adv-x="487" 
d="M244 185c92 0 140 74 140 165c0 92 -48 166 -140 166c-93 0 -142 -74 -142 -166c0 -91 49 -165 142 -165zM16 561l30 30l73 -79c31 27 74 43 125 43s92 -16 123 -43l74 79l30 -30l-75 -80c25 -35 38 -80 38 -131s-13 -96 -39 -133l76 -80l-30 -30l-74 79
c-32 -27 -72 -43 -123 -43s-93 16 -124 43l-74 -79l-30 30l75 81c-25 35 -38 79 -38 132c0 51 13 95 38 130z" />
    <glyph glyph-name="yen" unicode="&#xa5;" horiz-adv-x="530" 
d="M58 285v41h170l-216 360h58l194 -331h2l197 331h55l-217 -360h169v-41h-181v-75h181v-41h-181v-169h-50v169h-181v41h181v75h-181z" />
    <glyph glyph-name="brokenbar" unicode="&#xa6;" horiz-adv-x="201" 
d="M124 293v-411h-47v411h47zM77 359v395h47v-395h-47z" />
    <glyph glyph-name="section" unicode="&#xa7;" horiz-adv-x="548" 
d="M283 -182c-128 0 -199 92 -202 184h53c4 -80 60 -138 149 -138c76 0 114 32 114 95c0 59 -43 78 -152 142c-127 74 -217 125 -217 222c0 75 45 115 112 135c-24 27 -37 54 -37 93c0 87 65 148 169 148c111 0 179 -70 184 -169h-53c-5 79 -57 123 -133 123
c-77 0 -114 -43 -114 -99c0 -68 54 -94 155 -150c118 -64 209 -112 209 -215c0 -68 -39 -112 -111 -135c27 -27 41 -55 41 -94c0 -85 -59 -142 -167 -142zM290 358c-47 25 -84 46 -115 69c-63 -13 -95 -47 -95 -101c0 -73 58 -106 186 -178c43 -24 79 -44 108 -65
c71 19 94 62 94 105c0 73 -65 108 -178 170z" />
    <glyph glyph-name="dieresis" unicode="&#xa8;" horiz-adv-x="520" 
d="M160 635v80h49v-80h-49zM311 635v80h49v-80h-49z" />
    <glyph glyph-name="copyright" unicode="&#xa9;" horiz-adv-x="812" 
d="M406 -17c-204 0 -364 158 -364 372s160 373 364 373s364 -159 364 -373s-160 -372 -364 -372zM406 15c187 0 324 144 324 340s-137 341 -324 341s-324 -145 -324 -341s137 -340 324 -340zM408 122c-123 0 -204 96 -204 233s78 236 206 236c96 0 159 -55 174 -139h-50
c-11 57 -55 96 -124 96c-103 0 -154 -86 -154 -193c0 -108 53 -190 152 -190c81 0 127 53 134 125h49c-3 -43 -19 -84 -46 -113c-31 -35 -77 -55 -137 -55z" />
    <glyph glyph-name="ordfeminine" unicode="&#xaa;" horiz-adv-x="463" 
d="M393 559v-252c0 -27 13 -35 32 -35c6 0 14 2 24 5h3v-36c-8 -4 -20 -8 -40 -8c-39 0 -67 21 -67 68v6h-2c-27 -35 -66 -79 -157 -79c-83 0 -149 45 -149 128c0 107 83 127 182 138c99 8 126 17 126 58v11c0 64 -38 96 -109 96c-77 0 -120 -33 -128 -100h-48
c11 88 68 140 176 140c99 0 157 -44 157 -140zM193 269c100 0 152 67 152 132v81c-31 -15 -77 -22 -121 -27c-80 -8 -136 -20 -136 -100c0 -63 49 -86 105 -86z" />
    <glyph glyph-name="guillemotleft" unicode="&#xab;" horiz-adv-x="402" 
d="M342 126l-124 112v67l124 112v-62l-93 -83v-2l93 -82v-62zM184 126l-124 112v67l124 112v-62l-93 -83v-2l93 -82v-62z" />
    <glyph glyph-name="logicalnot" unicode="&#xac;" horiz-adv-x="510" 
d="M56 325v46h378v-236h-50v190h-328z" />
    <glyph glyph-name="uni00AD" unicode="&#xad;" horiz-adv-x="314" 
d="M33 260v44h248v-44h-248z" />
    <glyph glyph-name="registered" unicode="&#xae;" horiz-adv-x="528" 
d="M264 244c-132 0 -237 102 -237 242c0 139 105 242 237 242s237 -103 237 -242c0 -140 -105 -242 -237 -242zM264 274c117 0 201 89 201 212c0 122 -84 212 -201 212s-201 -90 -201 -212c0 -123 84 -212 201 -212zM171 359v262h118c48 0 80 -29 80 -72
c0 -31 -15 -54 -48 -63v-1c27 -7 37 -24 40 -59c4 -39 4 -61 11 -65v-2h-39c-7 3 -8 25 -11 60c-1 34 -18 51 -53 51h-58v-111h-40zM211 588v-86h69c32 0 49 15 49 42s-15 44 -48 44h-70z" />
    <glyph glyph-name="macron" unicode="&#xaf;" horiz-adv-x="500" 
d="M129 630v49h242v-49h-242z" />
    <glyph glyph-name="degree" unicode="&#xb0;" horiz-adv-x="318" 
d="M159 461c-67 0 -118 53 -118 119s51 119 118 119s118 -53 118 -119s-51 -119 -118 -119zM159 499c45 0 73 34 73 81s-28 81 -73 81c-44 0 -73 -34 -73 -81s29 -81 73 -81z" />
    <glyph glyph-name="plusminus" unicode="&#xb1;" horiz-adv-x="510" 
d="M56 313v46h174v177h50v-177h174v-46h-174v-180h-50v180h-174zM56 0v46h398v-46h-398z" />
    <glyph glyph-name="twosuperior" unicode="&#xb2;" horiz-adv-x="333" 
d="M297 317h-266c3 95 66 137 125 174c53 35 96 54 96 113c0 52 -31 80 -78 80c-53 0 -85 -33 -88 -98h-44c0 91 56 137 133 137c76 0 124 -51 124 -118c0 -79 -57 -108 -113 -143c-42 -26 -91 -55 -99 -106h210v-39z" />
    <glyph glyph-name="threesuperior" unicode="&#xb3;" horiz-adv-x="340" 
d="M171 309c-84 0 -143 51 -143 132h46c3 -60 38 -93 95 -93c59 0 90 31 90 82s-33 79 -90 79h-28v37h27c49 0 78 27 78 70c0 45 -32 71 -76 71c-56 0 -84 -39 -85 -90h-44c1 75 47 126 130 126c69 0 121 -39 121 -106c0 -45 -25 -73 -60 -86v-2c50 -15 75 -49 75 -102
c0 -76 -57 -118 -136 -118z" />
    <glyph glyph-name="acute" unicode="&#xb4;" horiz-adv-x="500" 
d="M209 588l76 127h69l-101 -127h-44z" />
    <glyph glyph-name="mu" unicode="&#xb5;" horiz-adv-x="483" 
d="M433 0h-49v79h-2c-35 -50 -78 -91 -166 -91c-47 0 -87 14 -115 54h-2v-208h-49v683h49v-364c0 -85 49 -123 126 -123c91 0 159 68 159 160v327h49v-517z" />
    <glyph glyph-name="paragraph" unicode="&#xb6;" horiz-adv-x="486" 
d="M246 382h-31c-124 0 -186 62 -186 169c0 48 16 88 47 119c30 30 74 45 132 45h216v-715h-52v665h-74v-665h-52v382z" />
    <glyph glyph-name="periodcentered" unicode="&#xb7;" horiz-adv-x="143" 
d="M41 271v79h61v-79h-61z" />
    <glyph glyph-name="cedilla" unicode="&#xb8;" horiz-adv-x="500" 
d="M219 -184c-39 0 -68 10 -89 22l13 25c23 -8 42 -13 67 -13c37 0 57 14 57 37s-16 29 -43 29c-17 0 -28 -4 -39 -7l-13 22l71 69h47l-55 -50v-2c47 3 80 -20 80 -61c0 -47 -40 -71 -96 -71z" />
    <glyph glyph-name="onesuperior" unicode="&#xb9;" horiz-adv-x="258" 
d="M121 317v295h-88v32c60 1 89 19 97 74h37v-401h-46z" />
    <glyph glyph-name="ordmasculine" unicode="&#xba;" horiz-adv-x="459" 
d="M230 228c-129 0 -205 101 -205 236c0 136 76 235 205 235c128 0 204 -99 204 -235c0 -135 -76 -236 -204 -236zM230 269c100 0 154 87 154 195s-54 196 -154 196c-102 0 -156 -88 -156 -196s54 -195 156 -195z" />
    <glyph glyph-name="guillemotright" unicode="&#xbb;" horiz-adv-x="402" 
d="M60 417l124 -112v-67l-124 -112v62l93 83v2l-93 82v62zM218 417l124 -112v-67l-124 -112v62l93 83v2l-93 82v62z" />
    <glyph glyph-name="onequarter" unicode="&#xbc;" horiz-adv-x="704" 
d="M126 317v295h-88v32c60 1 89 19 97 74h37v-401h-46zM60 0l512 715h53l-512 -715h-53zM568 0v99h-185v45l187 258h43v-266h60v-37h-60v-99h-45zM424 138v-2h144v198h-1z" />
    <glyph glyph-name="onehalf" unicode="&#xbd;" horiz-adv-x="743" 
d="M702 0h-266c3 95 66 137 125 174c53 35 96 54 96 113c0 52 -31 80 -78 80c-53 0 -85 -33 -88 -98h-44c0 91 56 137 133 137c76 0 124 -51 124 -118c0 -79 -57 -108 -113 -143c-42 -26 -91 -55 -99 -106h210v-39zM51 0l512 715h53l-512 -715h-53zM126 317v295h-88v32
c60 1 89 19 97 74h37v-401h-46z" />
    <glyph glyph-name="threequarters" unicode="&#xbe;" horiz-adv-x="770" 
d="M176 309c-84 0 -143 51 -143 132h46c3 -60 38 -93 95 -93c59 0 90 31 90 82s-33 79 -90 79h-28v37h27c49 0 78 27 78 70c0 45 -32 71 -76 71c-56 0 -84 -39 -85 -90h-44c1 75 47 126 130 126c69 0 121 -39 121 -106c0 -45 -25 -73 -60 -86v-2c50 -15 75 -49 75 -102
c0 -76 -57 -118 -136 -118zM132 0l512 715h53l-512 -715h-53zM634 0v99h-185v45l187 258h43v-266h60v-37h-60v-99h-45zM490 138v-2h144v198h-1z" />
    <glyph glyph-name="questiondown" unicode="&#xbf;" horiz-adv-x="493" 
d="M246 415h49c0 -116 -27 -157 -101 -218c-45 -37 -93 -75 -93 -158c0 -85 58 -133 141 -133c104 0 163 72 166 165h51c0 -103 -68 -211 -220 -211c-116 0 -191 77 -191 178c0 109 60 149 112 193c67 56 86 85 86 184zM301 588v-79h-61v79h61z" />
    <glyph glyph-name="Agrave" unicode="&#xc0;" horiz-adv-x="624" 
d="M6 0l276 715h59l277 -715h-54l-88 229h-329l-88 -229h-53zM273 557l-109 -284h295l-108 284c-8 20 -18 47 -26 68c-5 12 -9 25 -13 38h-2l-12 -36c-7 -21 -17 -47 -25 -70zM343 753h-44l-101 110h69z" />
    <glyph glyph-name="Aacute" unicode="&#xc1;" horiz-adv-x="624" 
d="M6 0l276 715h59l277 -715h-54l-88 229h-329l-88 -229h-53zM273 557l-109 -284h295l-108 284c-8 20 -18 47 -26 68c-5 12 -9 25 -13 38h-2l-12 -36c-7 -21 -17 -47 -25 -70zM280 753l76 110h69l-101 -110h-44z" />
    <glyph glyph-name="Acircumflex" unicode="&#xc2;" horiz-adv-x="624" 
d="M6 0l276 715h59l277 -715h-54l-88 229h-329l-88 -229h-53zM273 557l-109 -284h295l-108 284c-8 20 -18 47 -26 68c-5 12 -9 25 -13 38h-2l-12 -36c-7 -21 -17 -47 -25 -70zM187 752l94 101h62l94 -101h-59l-66 71h-2l-67 -71h-56z" />
    <glyph glyph-name="Atilde" unicode="&#xc3;" horiz-adv-x="624" 
d="M6 0l276 715h59l277 -715h-54l-88 229h-329l-88 -229h-53zM273 557l-109 -284h295l-108 284c-8 20 -18 47 -26 68c-5 12 -9 25 -13 38h-2l-12 -36c-7 -21 -17 -47 -25 -70zM371 760c-41 0 -87 43 -117 43c-15 0 -28 -14 -31 -41h-42c5 57 34 84 73 84
c42 0 85 -43 115 -43c17 0 30 14 33 41h42c-4 -56 -34 -84 -73 -84z" />
    <glyph glyph-name="Adieresis" unicode="&#xc4;" horiz-adv-x="624" 
d="M6 0l276 715h59l277 -715h-54l-88 229h-329l-88 -229h-53zM273 557l-109 -284h295l-108 284c-8 20 -18 47 -26 68c-5 12 -9 25 -13 38h-2l-12 -36c-7 -21 -17 -47 -25 -70zM212 755v80h49v-80h-49zM363 755v80h49v-80h-49z" />
    <glyph glyph-name="Aring" unicode="&#xc5;" horiz-adv-x="624" 
d="M6 0l276 715h59l277 -715h-54l-88 229h-329l-88 -229h-53zM273 557l-109 -284h295l-108 284c-8 20 -18 47 -26 68c-5 12 -9 25 -13 38h-2l-12 -36c-7 -21 -17 -47 -25 -70zM312 742c-48 0 -87 37 -87 85s39 85 87 85s87 -37 87 -85s-39 -85 -87 -85zM312 775
c29 0 49 23 49 52s-20 52 -49 52s-49 -23 -49 -52s20 -52 49 -52z" />
    <glyph glyph-name="AE" unicode="&#xc6;" horiz-adv-x="945" 
d="M865 346h-348v-298h392v-48h-444v229h-308l-95 -229h-53l297 715h593v-46h-382v-278h348v-45zM465 669h-126l-164 -396h290v396z" />
    <glyph glyph-name="Ccedilla" unicode="&#xc7;" horiz-adv-x="656" 
d="M315 -184c-39 0 -68 10 -89 22l13 25c23 -8 42 -13 67 -13c37 0 57 14 57 37s-16 29 -43 29c-17 0 -28 -4 -39 -7l-13 22l58 57c-183 8 -292 156 -292 368c0 220 120 373 315 373c141 0 239 -75 267 -210h-52c-20 97 -95 165 -215 165c-176 0 -261 -148 -261 -328
c0 -181 85 -323 258 -323c141 0 222 99 235 226h49c-7 -71 -27 -133 -66 -178c-45 -55 -111 -86 -191 -93l-42 -38v-2c47 3 80 -20 80 -61c0 -47 -40 -71 -96 -71z" />
    <glyph glyph-name="Egrave" unicode="&#xc8;" horiz-adv-x="582" 
d="M62 0v715h474v-46h-422v-278h388v-45h-388v-298h432v-48h-484zM342 753h-44l-101 110h69z" />
    <glyph glyph-name="Eacute" unicode="&#xc9;" horiz-adv-x="582" 
d="M62 0v715h474v-46h-422v-278h388v-45h-388v-298h432v-48h-484zM279 753l76 110h69l-101 -110h-44z" />
    <glyph glyph-name="Ecircumflex" unicode="&#xca;" horiz-adv-x="582" 
d="M62 0v715h474v-46h-422v-278h388v-45h-388v-298h432v-48h-484zM186 752l94 101h62l94 -101h-59l-66 71h-2l-67 -71h-56z" />
    <glyph glyph-name="Edieresis" unicode="&#xcb;" horiz-adv-x="582" 
d="M62 0v715h474v-46h-422v-278h388v-45h-388v-298h432v-48h-484zM211 755v80h49v-80h-49zM362 755v80h49v-80h-49z" />
    <glyph glyph-name="Igrave" unicode="&#xcc;" horiz-adv-x="184" 
d="M66 0v715h52v-715h-52zM115 753h-44l-101 110h69z" />
    <glyph glyph-name="Iacute" unicode="&#xcd;" horiz-adv-x="184" 
d="M66 0v715h52v-715h-52zM68 753l76 110h69l-101 -110h-44z" />
    <glyph glyph-name="Icircumflex" unicode="&#xce;" horiz-adv-x="184" 
d="M66 0v715h52v-715h-52zM-33 752l94 101h62l94 -101h-59l-66 71h-2l-67 -71h-56z" />
    <glyph glyph-name="Idieresis" unicode="&#xcf;" horiz-adv-x="184" 
d="M66 0v715h52v-715h-52zM-8 755v80h49v-80h-49zM143 755v80h49v-80h-49z" />
    <glyph glyph-name="Eth" unicode="&#xd0;" horiz-adv-x="660" 
d="M1 336v45h71v334h250c208 0 298 -149 298 -360c0 -210 -97 -355 -305 -355h-243v336h-71zM124 46h189c173 0 253 120 253 309c0 188 -73 313 -246 313h-196v-287h258v-45h-258v-290z" />
    <glyph glyph-name="Ntilde" unicode="&#xd1;" horiz-adv-x="649" 
d="M62 0v715h58l332 -505c21 -33 43 -65 58 -92c9 -15 17 -30 25 -43h2v640h50v-715h-55l-328 494c-20 31 -43 66 -60 94c-11 17 -21 33 -30 49h-2v-637h-50zM401 760c-41 0 -87 43 -117 43c-15 0 -28 -14 -31 -41h-42c5 57 34 84 73 84c42 0 85 -43 115 -43
c17 0 30 14 33 41h42c-4 -56 -34 -84 -73 -84z" />
    <glyph glyph-name="Ograve" unicode="&#xd2;" horiz-adv-x="710" 
d="M354 -13c-195 0 -320 159 -320 371s125 371 320 371s322 -159 322 -371s-127 -371 -322 -371zM354 34c173 0 268 147 268 324s-95 324 -268 324c-174 0 -266 -147 -266 -324s92 -324 266 -324zM389 753h-44l-101 110h69z" />
    <glyph glyph-name="Oacute" unicode="&#xd3;" horiz-adv-x="710" 
d="M354 -13c-195 0 -320 159 -320 371s125 371 320 371s322 -159 322 -371s-127 -371 -322 -371zM354 34c173 0 268 147 268 324s-95 324 -268 324c-174 0 -266 -147 -266 -324s92 -324 266 -324zM320 753l76 110h69l-101 -110h-44z" />
    <glyph glyph-name="Ocircumflex" unicode="&#xd4;" horiz-adv-x="710" 
d="M354 -13c-195 0 -320 159 -320 371s125 371 320 371s322 -159 322 -371s-127 -371 -322 -371zM354 34c173 0 268 147 268 324s-95 324 -268 324c-174 0 -266 -147 -266 -324s92 -324 266 -324zM230 752l94 101h62l94 -101h-59l-66 71h-2l-67 -71h-56z" />
    <glyph glyph-name="Otilde" unicode="&#xd5;" horiz-adv-x="710" 
d="M354 -13c-195 0 -320 159 -320 371s125 371 320 371s322 -159 322 -371s-127 -371 -322 -371zM354 34c173 0 268 147 268 324s-95 324 -268 324c-174 0 -266 -147 -266 -324s92 -324 266 -324zM414 760c-41 0 -87 43 -117 43c-15 0 -28 -14 -31 -41h-42c5 57 34 84 73 84
c42 0 85 -43 115 -43c17 0 30 14 33 41h42c-4 -56 -34 -84 -73 -84z" />
    <glyph glyph-name="Odieresis" unicode="&#xd6;" horiz-adv-x="710" 
d="M354 -13c-195 0 -320 159 -320 371s125 371 320 371s322 -159 322 -371s-127 -371 -322 -371zM354 34c173 0 268 147 268 324s-95 324 -268 324c-174 0 -266 -147 -266 -324s92 -324 266 -324zM255 755v80h49v-80h-49zM406 755v80h49v-80h-49z" />
    <glyph glyph-name="multiply" unicode="&#xd7;" horiz-adv-x="507" 
d="M79 472l32 32l142 -148l143 148l32 -32l-143 -148l143 -148l-32 -32l-143 147l-142 -147l-32 32l143 148z" />
    <glyph glyph-name="Oslash" unicode="&#xd8;" horiz-adv-x="710" 
d="M51 -16l-29 27l87 98c-48 65 -75 150 -75 249c0 212 125 371 320 371c91 0 166 -34 222 -94l83 94l29 -27l-86 -97c47 -65 74 -151 74 -247c0 -212 -127 -371 -322 -371c-91 0 -164 34 -220 91zM88 358c0 -80 18 -154 55 -211l400 451c-45 52 -108 84 -189 84
c-174 0 -266 -147 -266 -324zM354 34c173 0 268 147 268 324c0 79 -19 151 -55 208l-400 -451c45 -51 107 -81 187 -81z" />
    <glyph glyph-name="Ugrave" unicode="&#xd9;" horiz-adv-x="622" 
d="M308 -11c-156 0 -252 77 -252 236v490h52v-486c0 -140 72 -194 203 -194c123 0 203 54 203 194v486h52v-490c0 -163 -103 -236 -258 -236zM342 753h-44l-101 110h69z" />
    <glyph glyph-name="Uacute" unicode="&#xda;" horiz-adv-x="622" 
d="M308 -11c-156 0 -252 77 -252 236v490h52v-486c0 -140 72 -194 203 -194c123 0 203 54 203 194v486h52v-490c0 -163 -103 -236 -258 -236zM279 753l76 110h69l-101 -110h-44z" />
    <glyph glyph-name="Ucircumflex" unicode="&#xdb;" horiz-adv-x="622" 
d="M308 -11c-156 0 -252 77 -252 236v490h52v-486c0 -140 72 -194 203 -194c123 0 203 54 203 194v486h52v-490c0 -163 -103 -236 -258 -236zM186 752l94 101h62l94 -101h-59l-66 71h-2l-67 -71h-56z" />
    <glyph glyph-name="Udieresis" unicode="&#xdc;" horiz-adv-x="622" 
d="M308 -11c-156 0 -252 77 -252 236v490h52v-486c0 -140 72 -194 203 -194c123 0 203 54 203 194v486h52v-490c0 -163 -103 -236 -258 -236zM211 755v80h49v-80h-49zM362 755v80h49v-80h-49z" />
    <glyph glyph-name="Yacute" unicode="&#xdd;" horiz-adv-x="579" 
d="M263 0v318l-258 397h57l227 -350h2l227 350h56l-259 -399v-316h-52zM257 753l76 110h69l-101 -110h-44z" />
    <glyph glyph-name="Thorn" unicode="&#xde;" horiz-adv-x="578" 
d="M114 0h-52v715h52v-138h218c80 0 127 -20 166 -57c34 -33 51 -80 51 -139c0 -135 -76 -200 -224 -200h-211v-181zM328 530h-214v-303h207c127 0 175 58 175 153c0 96 -56 150 -168 150z" />
    <glyph glyph-name="germandbls" unicode="&#xdf;" horiz-adv-x="469" 
d="M239 -5c-11 0 -42 3 -58 7v42h2c16 -4 35 -6 50 -6c99 0 160 58 160 166c0 104 -55 175 -162 175h-43v41h46c83 0 122 61 122 134c0 76 -47 128 -127 128c-79 0 -130 -51 -130 -140v-542h-49v544c0 111 72 179 180 179c106 0 175 -75 175 -168c0 -73 -33 -126 -97 -150
v-2c84 -27 136 -92 136 -196c0 -142 -86 -212 -205 -212z" />
    <glyph glyph-name="agrave" unicode="&#xe0;" horiz-adv-x="492" 
d="M446 -8c-40 0 -68 22 -68 70v18h-3c-29 -40 -80 -93 -187 -93c-95 0 -165 48 -165 144c0 123 96 148 204 159c122 11 150 19 150 66v18c0 79 -46 112 -130 112c-97 0 -149 -39 -156 -116h-50c11 100 77 158 206 158c116 0 179 -50 179 -157v-304c0 -28 14 -36 33 -36
c6 0 14 2 24 5h3v-36c-8 -4 -20 -8 -40 -8zM193 28c116 0 184 79 184 156v96c-36 -19 -91 -24 -144 -31c-92 -11 -160 -21 -160 -120c0 -73 54 -101 120 -101zM287 588h-44l-101 127h69z" />
    <glyph glyph-name="aacute" unicode="&#xe1;" horiz-adv-x="492" 
d="M446 -8c-40 0 -68 22 -68 70v18h-3c-29 -40 -80 -93 -187 -93c-95 0 -165 48 -165 144c0 123 96 148 204 159c122 11 150 19 150 66v18c0 79 -46 112 -130 112c-97 0 -149 -39 -156 -116h-50c11 100 77 158 206 158c116 0 179 -50 179 -157v-304c0 -28 14 -36 33 -36
c6 0 14 2 24 5h3v-36c-8 -4 -20 -8 -40 -8zM193 28c116 0 184 79 184 156v96c-36 -19 -91 -24 -144 -31c-92 -11 -160 -21 -160 -120c0 -73 54 -101 120 -101zM210 588l76 127h69l-101 -127h-44z" />
    <glyph glyph-name="acircumflex" unicode="&#xe2;" horiz-adv-x="492" 
d="M446 -8c-40 0 -68 22 -68 70v18h-3c-29 -40 -80 -93 -187 -93c-95 0 -165 48 -165 144c0 123 96 148 204 159c122 11 150 19 150 66v18c0 79 -46 112 -130 112c-97 0 -149 -39 -156 -116h-50c11 100 77 158 206 158c116 0 179 -50 179 -157v-304c0 -28 14 -36 33 -36
c6 0 14 2 24 5h3v-36c-8 -4 -20 -8 -40 -8zM193 28c116 0 184 79 184 156v96c-36 -19 -91 -24 -144 -31c-92 -11 -160 -21 -160 -120c0 -73 54 -101 120 -101zM139 592l80 106h62l80 -106h-57l-54 76h-2l-55 -76h-54z" />
    <glyph glyph-name="atilde" unicode="&#xe3;" horiz-adv-x="492" 
d="M446 -8c-40 0 -68 22 -68 70v18h-3c-29 -40 -80 -93 -187 -93c-95 0 -165 48 -165 144c0 123 96 148 204 159c122 11 150 19 150 66v18c0 79 -46 112 -130 112c-97 0 -149 -39 -156 -116h-50c11 100 77 158 206 158c116 0 179 -50 179 -157v-304c0 -28 14 -36 33 -36
c6 0 14 2 24 5h3v-36c-8 -4 -20 -8 -40 -8zM193 28c116 0 184 79 184 156v96c-36 -19 -91 -24 -144 -31c-92 -11 -160 -21 -160 -120c0 -73 54 -101 120 -101zM309 600c-41 0 -87 43 -117 43c-15 0 -28 -14 -31 -41h-42c5 57 34 84 73 84c42 0 85 -43 115 -43
c17 0 30 14 33 41h42c-4 -56 -34 -84 -73 -84z" />
    <glyph glyph-name="adieresis" unicode="&#xe4;" horiz-adv-x="492" 
d="M446 -8c-40 0 -68 22 -68 70v18h-3c-29 -40 -80 -93 -187 -93c-95 0 -165 48 -165 144c0 123 96 148 204 159c122 11 150 19 150 66v18c0 79 -46 112 -130 112c-97 0 -149 -39 -156 -116h-50c11 100 77 158 206 158c116 0 179 -50 179 -157v-304c0 -28 14 -36 33 -36
c6 0 14 2 24 5h3v-36c-8 -4 -20 -8 -40 -8zM193 28c116 0 184 79 184 156v96c-36 -19 -91 -24 -144 -31c-92 -11 -160 -21 -160 -120c0 -73 54 -101 120 -101zM150 635v80h49v-80h-49zM301 635v80h49v-80h-49z" />
    <glyph glyph-name="aring" unicode="&#xe5;" horiz-adv-x="492" 
d="M446 -8c-40 0 -68 22 -68 70v18h-3c-29 -40 -80 -93 -187 -93c-95 0 -165 48 -165 144c0 123 96 148 204 159c122 11 150 19 150 66v18c0 79 -46 112 -130 112c-97 0 -149 -39 -156 -116h-50c11 100 77 158 206 158c116 0 179 -50 179 -157v-304c0 -28 14 -36 33 -36
c6 0 14 2 24 5h3v-36c-8 -4 -20 -8 -40 -8zM193 28c116 0 184 79 184 156v96c-36 -19 -91 -24 -144 -31c-92 -11 -160 -21 -160 -120c0 -73 54 -101 120 -101zM250 576c-48 0 -87 37 -87 85s39 85 87 85s87 -37 87 -85s-39 -85 -87 -85zM250 609c29 0 49 23 49 52
s-20 52 -49 52s-49 -23 -49 -52s20 -52 49 -52z" />
    <glyph glyph-name="ae" unicode="&#xe6;" horiz-adv-x="842" 
d="M817 253h-391c0 -124 57 -223 184 -223c94 0 135 54 157 124h47c-21 -96 -88 -167 -204 -167c-99 0 -166 46 -203 122h-1c-39 -79 -105 -122 -205 -122c-101 0 -178 51 -178 146c0 123 96 146 204 157c122 11 150 19 150 66v14c0 79 -45 116 -128 116
c-92 0 -140 -40 -151 -116h-49c13 100 79 158 200 158c95 0 151 -37 168 -112c37 71 101 112 189 112c56 0 101 -18 136 -50c57 -53 76 -126 75 -225zM204 29c111 0 173 77 173 155v97c-36 -19 -91 -24 -144 -31c-92 -11 -160 -20 -160 -119c0 -73 59 -102 131 -102z
M427 293h340c-3 101 -47 193 -161 193c-113 0 -168 -85 -179 -193z" />
    <glyph glyph-name="ccedilla" unicode="&#xe7;" horiz-adv-x="472" 
d="M211 -184c-39 0 -68 10 -89 22l13 25c23 -8 42 -13 67 -13c37 0 57 14 57 37s-16 29 -43 29c-17 0 -28 -4 -39 -7l-13 22l59 58c-132 11 -198 122 -198 269c0 155 78 270 226 270c108 0 183 -56 199 -160h-48c-17 83 -70 118 -151 118c-125 0 -176 -104 -176 -228
s52 -228 175 -228c91 0 149 60 160 145h46c-13 -107 -79 -179 -188 -187l-41 -38v-2c47 3 80 -20 80 -61c0 -47 -40 -71 -96 -71z" />
    <glyph glyph-name="egrave" unicode="&#xe8;" horiz-adv-x="491" 
d="M466 253h-391c0 -124 57 -223 184 -223c94 0 135 54 157 124h47c-21 -96 -88 -167 -204 -167c-152 0 -234 112 -234 271s89 270 230 270c56 0 101 -18 136 -50c57 -53 76 -126 75 -225zM76 293h340c-3 101 -47 193 -161 193c-113 0 -168 -85 -179 -193zM289 588h-44
l-101 127h69z" />
    <glyph glyph-name="eacute" unicode="&#xe9;" horiz-adv-x="491" 
d="M466 253h-391c0 -124 57 -223 184 -223c94 0 135 54 157 124h47c-21 -96 -88 -167 -204 -167c-152 0 -234 112 -234 271s89 270 230 270c56 0 101 -18 136 -50c57 -53 76 -126 75 -225zM76 293h340c-3 101 -47 193 -161 193c-113 0 -168 -85 -179 -193zM212 588l76 127
h69l-101 -127h-44z" />
    <glyph glyph-name="ecircumflex" unicode="&#xea;" horiz-adv-x="491" 
d="M466 253h-391c0 -124 57 -223 184 -223c94 0 135 54 157 124h47c-21 -96 -88 -167 -204 -167c-152 0 -234 112 -234 271s89 270 230 270c56 0 101 -18 136 -50c57 -53 76 -126 75 -225zM76 293h340c-3 101 -47 193 -161 193c-113 0 -168 -85 -179 -193zM141 592l80 106
h62l80 -106h-57l-54 76h-2l-55 -76h-54z" />
    <glyph glyph-name="edieresis" unicode="&#xeb;" horiz-adv-x="491" 
d="M466 253h-391c0 -124 57 -223 184 -223c94 0 135 54 157 124h47c-21 -96 -88 -167 -204 -167c-152 0 -234 112 -234 271s89 270 230 270c56 0 101 -18 136 -50c57 -53 76 -126 75 -225zM76 293h340c-3 101 -47 193 -161 193c-113 0 -168 -85 -179 -193zM152 635v80h49
v-80h-49zM303 635v80h49v-80h-49z" />
    <glyph glyph-name="igrave" unicode="&#xec;" 
d="M53 0v517h49v-517h-49zM100 588h-43l-80 127h65z" />
    <glyph glyph-name="iacute" unicode="&#xed;" 
d="M53 0v517h49v-517h-49zM57 588l58 127h65l-80 -127h-43z" />
    <glyph glyph-name="icircumflex" unicode="&#xee;" 
d="M53 0v517h49v-517h-49zM-18 592l64 106h62l64 -106h-52l-43 75h-2l-44 -75h-49z" />
    <glyph glyph-name="idieresis" unicode="&#xef;" 
d="M53 0v517h49v-517h-49zM2 635v80h49v-80h-49zM104 635v80h49v-80h-49z" />
    <glyph glyph-name="eth" unicode="&#xf0;" horiz-adv-x="514" 
d="M160 595l122 49c-27 25 -55 48 -86 71h64c20 -15 43 -30 67 -53l101 41l13 -31l-88 -36c70 -72 136 -189 136 -367c0 -168 -85 -282 -232 -282c-144 0 -232 115 -232 271c0 155 91 270 230 270c61 0 117 -27 157 -76h1c-25 65 -61 119 -105 166l-134 -54zM257 29
c120 0 182 103 182 229c0 131 -65 229 -182 229c-120 0 -182 -103 -182 -229s62 -229 182 -229z" />
    <glyph glyph-name="ntilde" unicode="&#xf1;" horiz-adv-x="485" 
d="M99 517v-87h2c35 56 92 97 180 97s158 -54 158 -158v-369h-49v364c0 85 -46 121 -118 121c-92 0 -173 -66 -173 -151v-334h-49v517h49zM307 600c-41 0 -87 43 -117 43c-15 0 -28 -14 -31 -41h-42c5 57 34 84 73 84c42 0 85 -43 115 -43c17 0 30 14 33 41h42
c-4 -56 -34 -84 -73 -84z" />
    <glyph glyph-name="ograve" unicode="&#xf2;" horiz-adv-x="514" 
d="M257 -13c-144 0 -232 115 -232 271c0 155 88 270 232 270c147 0 232 -115 232 -270c0 -156 -85 -271 -232 -271zM257 29c120 0 182 103 182 229s-62 229 -182 229s-182 -103 -182 -229s62 -229 182 -229zM294 588h-44l-101 127h69z" />
    <glyph glyph-name="oacute" unicode="&#xf3;" horiz-adv-x="514" 
d="M257 -13c-144 0 -232 115 -232 271c0 155 88 270 232 270c147 0 232 -115 232 -270c0 -156 -85 -271 -232 -271zM257 29c120 0 182 103 182 229s-62 229 -182 229s-182 -103 -182 -229s62 -229 182 -229zM217 588l76 127h69l-101 -127h-44z" />
    <glyph glyph-name="ocircumflex" unicode="&#xf4;" horiz-adv-x="514" 
d="M257 -13c-144 0 -232 115 -232 271c0 155 88 270 232 270c147 0 232 -115 232 -270c0 -156 -85 -271 -232 -271zM257 29c120 0 182 103 182 229s-62 229 -182 229s-182 -103 -182 -229s62 -229 182 -229zM146 592l80 106h62l80 -106h-57l-54 76h-2l-55 -76h-54z" />
    <glyph glyph-name="otilde" unicode="&#xf5;" horiz-adv-x="514" 
d="M257 -13c-144 0 -232 115 -232 271c0 155 88 270 232 270c147 0 232 -115 232 -270c0 -156 -85 -271 -232 -271zM257 29c120 0 182 103 182 229s-62 229 -182 229s-182 -103 -182 -229s62 -229 182 -229zM316 600c-41 0 -87 43 -117 43c-15 0 -28 -14 -31 -41h-42
c5 57 34 84 73 84c42 0 85 -43 115 -43c17 0 30 14 33 41h42c-4 -56 -34 -84 -73 -84z" />
    <glyph glyph-name="odieresis" unicode="&#xf6;" horiz-adv-x="514" 
d="M257 -13c-144 0 -232 115 -232 271c0 155 88 270 232 270c147 0 232 -115 232 -270c0 -156 -85 -271 -232 -271zM257 29c120 0 182 103 182 229s-62 229 -182 229s-182 -103 -182 -229s62 -229 182 -229zM157 635v80h49v-80h-49zM308 635v80h49v-80h-49z" />
    <glyph glyph-name="divide" unicode="&#xf7;" horiz-adv-x="510" 
d="M56 303v46h398v-46h-398zM224 123v75h61v-75h-61zM224 454v75h61v-75h-61z" />
    <glyph glyph-name="oslash" unicode="&#xf8;" horiz-adv-x="514" 
d="M41 -15l-26 23l61 69c-35 47 -51 109 -51 181c0 155 88 270 232 270c67 0 120 -23 159 -63l57 65l26 -23l-61 -70c33 -47 51 -107 51 -179c0 -156 -85 -271 -232 -271c-67 0 -120 23 -159 63zM75 258c0 -55 11 -104 34 -143l276 314c-31 36 -73 58 -128 58
c-120 0 -182 -103 -182 -229zM257 29c120 0 182 103 182 229c0 53 -11 103 -34 142l-276 -314c31 -36 72 -57 128 -57z" />
    <glyph glyph-name="ugrave" unicode="&#xf9;" horiz-adv-x="479" 
d="M429 0h-49v79h-2c-35 -50 -78 -91 -166 -91c-95 0 -166 57 -166 160v369h49v-364c0 -85 49 -123 126 -123c91 0 159 68 159 160v327h49v-517zM277 588h-44l-101 127h69z" />
    <glyph glyph-name="uacute" unicode="&#xfa;" horiz-adv-x="479" 
d="M429 0h-49v79h-2c-35 -50 -78 -91 -166 -91c-95 0 -166 57 -166 160v369h49v-364c0 -85 49 -123 126 -123c91 0 159 68 159 160v327h49v-517zM200 588l76 127h69l-101 -127h-44z" />
    <glyph glyph-name="ucircumflex" unicode="&#xfb;" horiz-adv-x="479" 
d="M429 0h-49v79h-2c-35 -50 -78 -91 -166 -91c-95 0 -166 57 -166 160v369h49v-364c0 -85 49 -123 126 -123c91 0 159 68 159 160v327h49v-517zM129 592l80 106h62l80 -106h-57l-54 76h-2l-55 -76h-54z" />
    <glyph glyph-name="udieresis" unicode="&#xfc;" horiz-adv-x="479" 
d="M429 0h-49v79h-2c-35 -50 -78 -91 -166 -91c-95 0 -166 57 -166 160v369h49v-364c0 -85 49 -123 126 -123c91 0 159 68 159 160v327h49v-517zM140 635v80h49v-80h-49zM291 635v80h49v-80h-49z" />
    <glyph glyph-name="yacute" unicode="&#xfd;" horiz-adv-x="455" 
d="M96 -171c-19 0 -28 3 -39 6v44h2c8 -3 18 -5 41 -5c43 0 74 19 93 75l15 43l-198 525h51l126 -342c9 -27 21 -57 30 -84l15 -45h2c5 15 9 30 14 45c8 27 19 57 28 84l120 342h50l-208 -579c-31 -84 -71 -109 -142 -109zM191 588l76 127h69l-101 -127h-44z" />
    <glyph glyph-name="thorn" unicode="&#xfe;" horiz-adv-x="516" 
d="M50 -166v881h49v-297h2c35 67 93 110 181 110c120 0 209 -97 209 -269c0 -155 -80 -270 -213 -270c-87 0 -140 36 -177 96h-2v-251h-49zM276 30c112 0 165 105 165 228c0 139 -59 228 -166 228c-115 0 -181 -99 -181 -230c0 -137 65 -226 182 -226z" />
    <glyph glyph-name="ydieresis" unicode="&#xff;" horiz-adv-x="455" 
d="M96 -171c-19 0 -28 3 -39 6v44h2c8 -3 18 -5 41 -5c43 0 74 19 93 75l15 43l-198 525h51l126 -342c9 -27 21 -57 30 -84l15 -45h2c5 15 9 30 14 45c8 27 19 57 28 84l120 342h50l-208 -579c-31 -84 -71 -109 -142 -109zM131 635v80h49v-80h-49zM282 635v80h49v-80h-49z
" />
    <glyph glyph-name="Amacron" unicode="&#x100;" horiz-adv-x="624" 
d="M6 0l276 715h59l277 -715h-54l-88 229h-329l-88 -229h-53zM273 557l-109 -284h295l-108 284c-8 20 -18 47 -26 68c-5 12 -9 25 -13 38h-2l-12 -36c-7 -21 -17 -47 -25 -70zM191 762v49h242v-49h-242z" />
    <glyph glyph-name="amacron" unicode="&#x101;" horiz-adv-x="492" 
d="M446 -8c-40 0 -68 22 -68 70v18h-3c-29 -40 -80 -93 -187 -93c-95 0 -165 48 -165 144c0 123 96 148 204 159c122 11 150 19 150 66v18c0 79 -46 112 -130 112c-97 0 -149 -39 -156 -116h-50c11 100 77 158 206 158c116 0 179 -50 179 -157v-304c0 -28 14 -36 33 -36
c6 0 14 2 24 5h3v-36c-8 -4 -20 -8 -40 -8zM193 28c116 0 184 79 184 156v96c-36 -19 -91 -24 -144 -31c-92 -11 -160 -21 -160 -120c0 -73 54 -101 120 -101zM129 630v49h242v-49h-242z" />
    <glyph glyph-name="Abreve" unicode="&#x102;" horiz-adv-x="624" 
d="M6 0l276 715h59l277 -715h-54l-88 229h-329l-88 -229h-53zM273 557l-109 -284h295l-108 284c-8 20 -18 47 -26 68c-5 12 -9 25 -13 38h-2l-12 -36c-7 -21 -17 -47 -25 -70zM312 753c-68 0 -114 42 -118 102h46c7 -35 29 -56 72 -56s65 21 72 56h46
c-4 -60 -50 -102 -118 -102z" />
    <glyph glyph-name="abreve" unicode="&#x103;" horiz-adv-x="492" 
d="M446 -8c-40 0 -68 22 -68 70v18h-3c-29 -40 -80 -93 -187 -93c-95 0 -165 48 -165 144c0 123 96 148 204 159c122 11 150 19 150 66v18c0 79 -46 112 -130 112c-97 0 -149 -39 -156 -116h-50c11 100 77 158 206 158c116 0 179 -50 179 -157v-304c0 -28 14 -36 33 -36
c6 0 14 2 24 5h3v-36c-8 -4 -20 -8 -40 -8zM193 28c116 0 184 79 184 156v96c-36 -19 -91 -24 -144 -31c-92 -11 -160 -21 -160 -120c0 -73 54 -101 120 -101zM250 589c-68 0 -114 46 -118 106h46c7 -35 29 -59 72 -59s65 24 72 59h46c-4 -60 -50 -106 -118 -106z" />
    <glyph glyph-name="Aogonek" unicode="&#x104;" horiz-adv-x="624" 
d="M616 -125h3v-35c-13 -8 -32 -15 -59 -15c-57 0 -85 27 -85 70c0 45 44 87 87 111l-86 223h-329l-88 -229h-53l276 715h59l275 -710c-60 -39 -91 -71 -91 -107c0 -23 14 -34 41 -34c19 0 33 4 50 11zM273 557l-109 -284h295l-108 284c-8 20 -18 47 -26 68
c-5 12 -9 25 -13 38h-2l-12 -36c-7 -21 -17 -47 -25 -70z" />
    <glyph glyph-name="aogonek" unicode="&#x105;" horiz-adv-x="492" 
d="M487 -126h3v-35c-13 -8 -32 -14 -59 -14c-57 0 -85 27 -85 70s37 78 74 101c-25 7 -42 29 -42 66v18h-3c-29 -40 -80 -93 -187 -93c-95 0 -165 48 -165 144c0 123 96 148 204 159c122 11 150 19 150 66v18c0 79 -46 112 -130 112c-97 0 -149 -39 -156 -116h-50
c11 100 77 158 206 158c116 0 179 -50 179 -157v-304c0 -28 14 -36 33 -36c6 0 14 2 24 5h3v-36c-51 -27 -90 -65 -90 -102c0 -23 14 -35 41 -35c19 0 33 4 50 11zM193 28c116 0 184 79 184 156v96c-36 -19 -91 -24 -144 -31c-92 -11 -160 -21 -160 -120
c0 -73 54 -101 120 -101z" />
    <glyph glyph-name="Cacute" unicode="&#x106;" horiz-adv-x="656" 
d="M346 -13c-195 0 -312 149 -312 369s120 373 315 373c141 0 239 -75 267 -210h-52c-20 97 -95 165 -215 165c-176 0 -261 -148 -261 -328c0 -181 85 -323 258 -323c141 0 222 99 235 226h49c-7 -71 -27 -133 -66 -178c-51 -60 -126 -94 -218 -94zM316 753l76 110h69
l-101 -110h-44z" />
    <glyph glyph-name="cacute" unicode="&#x107;" horiz-adv-x="472" 
d="M250 -13c-149 0 -225 115 -225 271c0 155 78 270 226 270c108 0 183 -56 199 -160h-48c-17 83 -70 118 -151 118c-125 0 -176 -104 -176 -228s52 -228 175 -228c91 0 149 60 160 145h46c-13 -112 -87 -188 -206 -188zM204 588l76 127h69l-101 -127h-44z" />
    <glyph glyph-name="Ccircumflex" unicode="&#x108;" horiz-adv-x="656" 
d="M346 -13c-195 0 -312 149 -312 369s120 373 315 373c141 0 239 -75 267 -210h-52c-20 97 -95 165 -215 165c-176 0 -261 -148 -261 -328c0 -181 85 -323 258 -323c141 0 222 99 235 226h49c-7 -71 -27 -133 -66 -178c-51 -60 -126 -94 -218 -94zM223 752l94 101h62
l94 -101h-59l-66 71h-2l-67 -71h-56z" />
    <glyph glyph-name="ccircumflex" unicode="&#x109;" horiz-adv-x="472" 
d="M250 -13c-149 0 -225 115 -225 271c0 155 78 270 226 270c108 0 183 -56 199 -160h-48c-17 83 -70 118 -151 118c-125 0 -176 -104 -176 -228s52 -228 175 -228c91 0 149 60 160 145h46c-13 -112 -87 -188 -206 -188zM133 592l80 106h62l80 -106h-57l-54 76h-2l-55 -76
h-54z" />
    <glyph glyph-name="Cdotaccent" unicode="&#x10a;" horiz-adv-x="656" 
d="M346 -13c-195 0 -312 149 -312 369s120 373 315 373c141 0 239 -75 267 -210h-52c-20 97 -95 165 -215 165c-176 0 -261 -148 -261 -328c0 -181 85 -323 258 -323c141 0 222 99 235 226h49c-7 -71 -27 -133 -66 -178c-51 -60 -126 -94 -218 -94zM324 755v80h49v-80h-49z
" />
    <glyph glyph-name="cdotaccent" unicode="&#x10b;" horiz-adv-x="472" 
d="M250 -13c-149 0 -225 115 -225 271c0 155 78 270 226 270c108 0 183 -56 199 -160h-48c-17 83 -70 118 -151 118c-125 0 -176 -104 -176 -228s52 -228 175 -228c91 0 149 60 160 145h46c-13 -112 -87 -188 -206 -188zM220 635v80h49v-80h-49z" />
    <glyph glyph-name="Ccaron" unicode="&#x10c;" horiz-adv-x="656" 
d="M346 -13c-195 0 -312 149 -312 369s120 373 315 373c141 0 239 -75 267 -210h-52c-20 97 -95 165 -215 165c-176 0 -261 -148 -261 -328c0 -181 85 -323 258 -323c141 0 222 99 235 226h49c-7 -71 -27 -133 -66 -178c-51 -60 -126 -94 -218 -94zM473 853l-94 -101h-62
l-94 101h59l66 -71h2l67 71h56z" />
    <glyph glyph-name="ccaron" unicode="&#x10d;" horiz-adv-x="472" 
d="M250 -13c-149 0 -225 115 -225 271c0 155 78 270 226 270c108 0 183 -56 199 -160h-48c-17 83 -70 118 -151 118c-125 0 -176 -104 -176 -228s52 -228 175 -228c91 0 149 60 160 145h46c-13 -112 -87 -188 -206 -188zM355 698l-80 -106h-62l-80 106h57l54 -76h2l55 76h54
z" />
    <glyph glyph-name="Dcaron" unicode="&#x10e;" horiz-adv-x="644" 
d="M62 0v715h250c208 0 298 -149 298 -360c0 -210 -97 -355 -305 -355h-243zM114 46h189c173 0 253 120 253 309c0 188 -73 313 -246 313h-196v-622zM416 853l-94 -101h-62l-94 101h59l66 -71h2l67 71h56z" />
    <glyph glyph-name="dcaron" unicode="&#x10f;" horiz-adv-x="518" 
d="M243 -13c-139 0 -218 115 -218 270c0 172 97 271 217 271c84 0 142 -38 175 -105h2v292h49v-715h-49v86h-2c-39 -64 -93 -99 -174 -99zM245 28c112 0 179 92 179 228c0 131 -62 230 -178 230c-106 0 -171 -91 -171 -230c0 -124 53 -228 170 -228zM501 558v29
c17 8 28 20 28 51v3h-26v74h59v-73c0 -49 -20 -77 -61 -84z" />
    <glyph glyph-name="Dcroat" unicode="&#x110;" horiz-adv-x="660" 
d="M1 336v45h71v334h250c208 0 298 -149 298 -360c0 -210 -97 -355 -305 -355h-243v336h-71zM124 46h189c173 0 253 120 253 309c0 188 -73 313 -246 313h-196v-287h258v-45h-258v-290z" />
    <glyph glyph-name="dcroat" unicode="&#x111;" horiz-adv-x="518" 
d="M292 588v41h127v86h49v-86h57v-41h-57v-588h-49v86h-2c-39 -64 -93 -99 -174 -99c-139 0 -218 115 -218 270c0 172 97 271 217 271c84 0 142 -38 175 -105h2v165h-127zM245 28c112 0 179 92 179 228c0 131 -62 230 -178 230c-106 0 -171 -91 -171 -230
c0 -124 53 -228 170 -228z" />
    <glyph glyph-name="Emacron" unicode="&#x112;" horiz-adv-x="582" 
d="M62 0v715h474v-46h-422v-278h388v-45h-388v-298h432v-48h-484zM190 762v49h242v-49h-242z" />
    <glyph glyph-name="emacron" unicode="&#x113;" horiz-adv-x="491" 
d="M466 253h-391c0 -124 57 -223 184 -223c94 0 135 54 157 124h47c-21 -96 -88 -167 -204 -167c-152 0 -234 112 -234 271s89 270 230 270c56 0 101 -18 136 -50c57 -53 76 -126 75 -225zM76 293h340c-3 101 -47 193 -161 193c-113 0 -168 -85 -179 -193zM131 630v49h242
v-49h-242z" />
    <glyph glyph-name="Ebreve" unicode="&#x114;" horiz-adv-x="582" 
d="M62 0v715h474v-46h-422v-278h388v-45h-388v-298h432v-48h-484zM310 753c-68 0 -114 42 -118 102h46c7 -35 29 -56 72 -56s65 21 72 56h46c-4 -60 -50 -102 -118 -102z" />
    <glyph glyph-name="ebreve" unicode="&#x115;" horiz-adv-x="491" 
d="M466 253h-391c0 -124 57 -223 184 -223c94 0 135 54 157 124h47c-21 -96 -88 -167 -204 -167c-152 0 -234 112 -234 271s89 270 230 270c56 0 101 -18 136 -50c57 -53 76 -126 75 -225zM76 293h340c-3 101 -47 193 -161 193c-113 0 -168 -85 -179 -193zM251 589
c-68 0 -114 46 -118 106h46c7 -35 29 -59 72 -59s65 24 72 59h46c-4 -60 -50 -106 -118 -106z" />
    <glyph glyph-name="Edotaccent" unicode="&#x116;" horiz-adv-x="582" 
d="M62 0v715h474v-46h-422v-278h388v-45h-388v-298h432v-48h-484zM287 755v80h49v-80h-49z" />
    <glyph glyph-name="edotaccent" unicode="&#x117;" horiz-adv-x="491" 
d="M466 253h-391c0 -124 57 -223 184 -223c94 0 135 54 157 124h47c-21 -96 -88 -167 -204 -167c-152 0 -234 112 -234 271s89 270 230 270c56 0 101 -18 136 -50c57 -53 76 -126 75 -225zM76 293h340c-3 101 -47 193 -161 193c-113 0 -168 -85 -179 -193zM228 635v80h49
v-80h-49z" />
    <glyph glyph-name="Eogonek" unicode="&#x118;" horiz-adv-x="582" 
d="M62 0v715h474v-46h-422v-278h388v-45h-388v-298h432v-48h-40c-51 -35 -83 -66 -83 -102c0 -23 14 -34 41 -34c19 0 33 4 50 11h3v-35c-13 -8 -32 -15 -59 -15c-57 0 -85 27 -85 70s33 81 76 105h-387z" />
    <glyph glyph-name="eogonek" unicode="&#x119;" horiz-adv-x="491" 
d="M466 253h-391c0 -124 57 -223 184 -223c94 0 135 54 157 124h47c-16 -75 -57 -114 -97 -147c-48 -40 -84 -73 -84 -110c0 -23 14 -34 41 -34c19 0 33 4 50 11h3v-35c-13 -8 -32 -14 -59 -14c-57 0 -85 27 -85 70c0 39 32 73 65 96c-11 -3 -25 -4 -38 -4
c-152 0 -234 112 -234 271s89 270 230 270c56 0 101 -18 136 -50c57 -53 76 -126 75 -225zM76 293h340c-3 101 -47 193 -161 193c-113 0 -168 -85 -179 -193z" />
    <glyph glyph-name="Ecaron" unicode="&#x11a;" horiz-adv-x="582" 
d="M62 0v715h474v-46h-422v-278h388v-45h-388v-298h432v-48h-484zM436 853l-94 -101h-62l-94 101h59l66 -71h2l67 71h56z" />
    <glyph glyph-name="ecaron" unicode="&#x11b;" horiz-adv-x="491" 
d="M466 253h-391c0 -124 57 -223 184 -223c94 0 135 54 157 124h47c-21 -96 -88 -167 -204 -167c-152 0 -234 112 -234 271s89 270 230 270c56 0 101 -18 136 -50c57 -53 76 -126 75 -225zM76 293h340c-3 101 -47 193 -161 193c-113 0 -168 -85 -179 -193zM363 698l-80 -106
h-62l-80 106h57l54 -76h2l55 76h54z" />
    <glyph glyph-name="Gcircumflex" unicode="&#x11c;" horiz-adv-x="709" 
d="M615 0l-6 128h-4c-27 -49 -91 -141 -249 -141c-214 0 -322 159 -322 371s121 371 334 371c135 0 245 -68 275 -216h-52c-24 116 -116 171 -223 171c-193 0 -280 -149 -280 -326s81 -325 268 -325c177 0 249 122 249 250v31h-240v46h290v-360h-40zM232 752l94 101h62
l94 -101h-59l-66 71h-2l-67 -71h-56z" />
    <glyph glyph-name="gcircumflex" unicode="&#x11d;" horiz-adv-x="517" 
d="M250 -187c-124 0 -191 61 -199 130h49c15 -63 75 -88 148 -88c120 0 170 67 170 159v88h-3c-39 -64 -90 -97 -171 -97c-138 0 -219 105 -219 259c0 172 102 264 222 264c84 0 133 -40 168 -100h3v89h49v-502c0 -59 -17 -106 -51 -142c-39 -39 -91 -60 -166 -60zM246 46
c113 0 176 82 176 217c0 128 -58 223 -173 223c-106 0 -174 -88 -174 -223c0 -123 55 -217 171 -217zM145 592l80 106h62l80 -106h-57l-54 76h-2l-55 -76h-54z" />
    <glyph glyph-name="Gbreve" unicode="&#x11e;" horiz-adv-x="709" 
d="M615 0l-6 128h-4c-27 -49 -91 -141 -249 -141c-214 0 -322 159 -322 371s121 371 334 371c135 0 245 -68 275 -216h-52c-24 116 -116 171 -223 171c-193 0 -280 -149 -280 -326s81 -325 268 -325c177 0 249 122 249 250v31h-240v46h290v-360h-40zM357 753
c-68 0 -114 42 -118 102h46c7 -35 29 -56 72 -56s65 21 72 56h46c-4 -60 -50 -102 -118 -102z" />
    <glyph glyph-name="gbreve" unicode="&#x11f;" horiz-adv-x="517" 
d="M250 -187c-124 0 -191 61 -199 130h49c15 -63 75 -88 148 -88c120 0 170 67 170 159v88h-3c-39 -64 -90 -97 -171 -97c-138 0 -219 105 -219 259c0 172 102 264 222 264c84 0 133 -40 168 -100h3v89h49v-502c0 -59 -17 -106 -51 -142c-39 -39 -91 -60 -166 -60zM246 46
c113 0 176 82 176 217c0 128 -58 223 -173 223c-106 0 -174 -88 -174 -223c0 -123 55 -217 171 -217zM256 589c-68 0 -114 46 -118 106h46c7 -35 29 -59 72 -59s65 24 72 59h46c-4 -60 -50 -106 -118 -106z" />
    <glyph glyph-name="Gdotaccent" unicode="&#x120;" horiz-adv-x="709" 
d="M615 0l-6 128h-4c-27 -49 -91 -141 -249 -141c-214 0 -322 159 -322 371s121 371 334 371c135 0 245 -68 275 -216h-52c-24 116 -116 171 -223 171c-193 0 -280 -149 -280 -326s81 -325 268 -325c177 0 249 122 249 250v31h-240v46h290v-360h-40zM333 755v80h49v-80h-49z
" />
    <glyph glyph-name="gdotaccent" unicode="&#x121;" horiz-adv-x="517" 
d="M250 -187c-124 0 -191 61 -199 130h49c15 -63 75 -88 148 -88c120 0 170 67 170 159v88h-3c-39 -64 -90 -97 -171 -97c-138 0 -219 105 -219 259c0 172 102 264 222 264c84 0 133 -40 168 -100h3v89h49v-502c0 -59 -17 -106 -51 -142c-39 -39 -91 -60 -166 -60zM246 46
c113 0 176 82 176 217c0 128 -58 223 -173 223c-106 0 -174 -88 -174 -223c0 -123 55 -217 171 -217zM232 635v80h49v-80h-49z" />
    <glyph glyph-name="uni0122" unicode="&#x122;" horiz-adv-x="709" 
d="M615 0l-6 128h-4c-27 -49 -91 -141 -249 -141c-214 0 -322 159 -322 371s121 371 334 371c135 0 245 -68 275 -216h-52c-24 116 -116 171 -223 171c-193 0 -280 -149 -280 -326s81 -325 268 -325c177 0 249 122 249 250v31h-240v46h290v-360h-40zM327 -204v29
c17 8 28 20 28 53v3h-26v71h59v-70c0 -51 -20 -79 -61 -86z" />
    <glyph glyph-name="uni0123" unicode="&#x123;" horiz-adv-x="517" 
d="M250 -187c-124 0 -191 61 -199 130h49c15 -63 75 -88 148 -88c120 0 170 67 170 159v88h-3c-39 -64 -90 -97 -171 -97c-138 0 -219 105 -219 259c0 172 102 264 222 264c84 0 133 -40 168 -100h3v89h49v-502c0 -59 -17 -106 -51 -142c-39 -39 -91 -60 -166 -60zM246 46
c113 0 176 82 176 217c0 128 -58 223 -173 223c-106 0 -174 -88 -174 -223c0 -123 55 -217 171 -217zM284 754v-29c-17 -8 -28 -20 -28 -53v-3h26v-71h-59v70c0 51 20 79 61 86z" />
    <glyph glyph-name="Hcircumflex" unicode="&#x124;" horiz-adv-x="648" 
d="M62 0v715h52v-313h420v313h52v-715h-52v358h-420v-358h-52zM199 752l94 101h62l94 -101h-59l-66 71h-2l-67 -71h-56z" />
    <glyph glyph-name="hcircumflex" unicode="&#x125;" horiz-adv-x="490" 
d="M104 715v-285h2c35 56 92 97 180 97s158 -54 158 -158v-369h-49v364c0 85 -46 121 -118 121c-92 0 -173 -66 -173 -151v-334h-49v715h49zM124 752l94 101h62l94 -101h-59l-66 71h-2l-67 -71h-56z" />
    <glyph glyph-name="Hbar" unicode="&#x126;" horiz-adv-x="648" 
d="M-8 523v44h70v148h52v-148h420v148h52v-148h70v-44h-70v-523h-52v358h-420v-358h-52v523h-70zM114 402h420v121h-420v-121z" />
    <glyph glyph-name="hbar" unicode="&#x127;" horiz-adv-x="490" 
d="M104 715v-86h127v-41h-127v-158h2c35 56 92 97 180 97s158 -54 158 -158v-369h-49v364c0 85 -46 121 -118 121c-92 0 -173 -66 -173 -151v-334h-49v588h-57v41h57v86h49z" />
    <glyph glyph-name="Itilde" unicode="&#x128;" horiz-adv-x="184" 
d="M66 0v715h52v-715h-52zM151 760c-41 0 -87 43 -117 43c-15 0 -28 -14 -31 -41h-42c5 57 34 84 73 84c42 0 85 -43 115 -43c17 0 30 14 33 41h42c-4 -56 -34 -84 -73 -84z" />
    <glyph glyph-name="itilde" unicode="&#x129;" 
d="M53 0v517h49v-517h-49zM124 602c-37 0 -73 39 -92 39c-13 0 -21 -11 -24 -39h-42c3 57 30 82 65 82c40 0 68 -39 90 -39c15 0 23 11 26 39h42c-3 -56 -30 -82 -65 -82z" />
    <glyph glyph-name="Imacron" unicode="&#x12a;" horiz-adv-x="184" 
d="M66 0v715h52v-715h-52zM11 764v44h162v-44h-162z" />
    <glyph glyph-name="imacron" unicode="&#x12b;" 
d="M53 0v517h49v-517h-49zM-4 630v49h162v-49h-162z" />
    <glyph glyph-name="Iogonek" unicode="&#x12e;" horiz-adv-x="184" 
d="M131 -125h3v-35c-13 -8 -32 -15 -57 -15c-56 0 -84 27 -84 71s36 82 73 105v714h52v-713c-47 -36 -75 -68 -75 -104c0 -21 11 -34 40 -34c17 0 31 4 48 11z" />
    <glyph glyph-name="iogonek" unicode="&#x12f;" 
d="M53 2v515h49v-518c-47 -36 -74 -65 -74 -101c0 -23 13 -35 39 -35c17 0 30 4 47 11h3v-34c-13 -8 -31 -15 -56 -15c-56 0 -83 27 -83 70c0 45 38 84 75 107zM53 635v80h49v-80h-49z" />
    <glyph glyph-name="Idotaccent" unicode="&#x130;" horiz-adv-x="184" 
d="M66 0v715h52v-715h-52zM68 755v80h49v-80h-49z" />
    <glyph glyph-name="dotlessi" unicode="&#x131;" 
d="M53 0v517h49v-517h-49z" />
    <glyph glyph-name="IJ" unicode="&#x132;" horiz-adv-x="631" 
d="M66 0v715h52v-715h-52zM390 -13c-125 0 -197 62 -197 197v38h51v-36c0 -111 51 -152 147 -152c80 0 129 42 129 134v547h52v-551c0 -100 -58 -177 -182 -177z" />
    <glyph glyph-name="ij" unicode="&#x133;" horiz-adv-x="310" 
d="M53 0v517h49v-517h-49zM53 635v80h49v-80h-49zM140 -166v42h10c40 0 58 18 58 65v576h49v-577c0 -76 -35 -106 -104 -106h-13zM208 635v80h49v-80h-49z" />
    <glyph glyph-name="Jcircumflex" unicode="&#x134;" horiz-adv-x="460" 
d="M219 -13c-125 0 -197 62 -197 197v38h51v-36c0 -111 51 -152 147 -152c80 0 129 42 129 134v547h52v-551c0 -100 -58 -177 -182 -177zM250 752l94 101h62l94 -101h-59l-66 71h-2l-67 -71h-56z" />
    <glyph glyph-name="jcircumflex" unicode="&#x135;" 
d="M-15 -166v42h10c40 0 58 18 58 65v576h49v-577c0 -76 -35 -106 -104 -106h-13zM-18 592l64 106h62l64 -106h-52l-43 75h-2l-44 -75h-49z" />
    <glyph glyph-name="uni0136" unicode="&#x136;" horiz-adv-x="613" 
d="M62 0v715h52v-399l409 400h69l-305 -295l319 -421h-63l-293 385l-136 -133v-252h-52zM270 -204v29c17 8 28 20 28 53v3h-26v71h59v-70c0 -51 -20 -79 -61 -86z" />
    <glyph glyph-name="uni0137" unicode="&#x137;" horiz-adv-x="467" 
d="M407 0l-200 297l-108 -104v-193h-49v715h49v-465l278 267h62l-197 -187l221 -330h-56zM198 -204v29c17 8 28 20 28 53v3h-26v71h59v-70c0 -51 -20 -79 -61 -86z" />
    <glyph glyph-name="Lacute" unicode="&#x139;" horiz-adv-x="524" 
d="M62 0v715h52v-667h385v-48h-437zM68 753l76 110h69l-101 -110h-44z" />
    <glyph glyph-name="lacute" unicode="&#x13a;" 
d="M53 0v715h49v-715h-49zM55 753l76 110h69l-101 -110h-44z" />
    <glyph glyph-name="uni013B" unicode="&#x13b;" horiz-adv-x="524" 
d="M62 0v715h52v-667h385v-48h-437zM240 -204v29c17 8 28 20 28 53v3h-26v71h59v-70c0 -51 -20 -79 -61 -86z" />
    <glyph glyph-name="uni013C" unicode="&#x13c;" 
d="M53 0v715h49v-715h-49zM47 -204v29c17 8 28 20 28 53v3h-26v71h59v-70c0 -51 -20 -79 -61 -86z" />
    <glyph glyph-name="Lcaron" unicode="&#x13d;" horiz-adv-x="524" 
d="M62 0v715h52v-667h385v-48h-437zM262 558v29c17 8 28 20 28 51v3h-26v74h59v-73c0 -49 -20 -77 -61 -84z" />
    <glyph glyph-name="lcaron" unicode="&#x13e;" 
d="M53 0v715h49v-715h-49zM135 558v29c17 8 28 20 28 51v3h-26v74h59v-73c0 -49 -20 -77 -61 -84z" />
    <glyph glyph-name="Ldot" unicode="&#x13f;" horiz-adv-x="524" 
d="M62 0v715h52v-667h385v-48h-437zM341 271v79h61v-79h-61z" />
    <glyph glyph-name="ldot" unicode="&#x140;" horiz-adv-x="238" 
d="M53 0v715h49v-715h-49zM166 271v79h61v-79h-61z" />
    <glyph glyph-name="Lslash" unicode="&#x141;" horiz-adv-x="544" 
d="M-5 203v48l87 46v418h52v-390l271 144v-48l-271 -144v-229h385v-48h-437v249z" />
    <glyph glyph-name="lslash" unicode="&#x142;" horiz-adv-x="195" 
d="M5 291v53l68 58v313h49v-271l75 64v-53l-75 -64v-391h-49v349z" />
    <glyph glyph-name="Nacute" unicode="&#x143;" horiz-adv-x="649" 
d="M62 0v715h58l332 -505c21 -33 43 -65 58 -92c9 -15 17 -30 25 -43h2v640h50v-715h-55l-328 494c-20 31 -43 66 -60 94c-11 17 -21 33 -30 49h-2v-637h-50zM310 753l76 110h69l-101 -110h-44z" />
    <glyph glyph-name="nacute" unicode="&#x144;" horiz-adv-x="485" 
d="M99 517v-87h2c35 56 92 97 180 97s158 -54 158 -158v-369h-49v364c0 85 -46 121 -118 121c-92 0 -173 -66 -173 -151v-334h-49v517h49zM208 588l76 127h69l-101 -127h-44z" />
    <glyph glyph-name="uni0145" unicode="&#x145;" horiz-adv-x="649" 
d="M62 0v715h58l332 -505c21 -33 43 -65 58 -92c9 -15 17 -30 25 -43h2v640h50v-715h-55l-328 494c-20 31 -43 66 -60 94c-11 17 -21 33 -30 49h-2v-637h-50zM279 -204v29c17 8 28 20 28 53v3h-26v71h59v-70c0 -51 -20 -79 -61 -86z" />
    <glyph glyph-name="uni0146" unicode="&#x146;" horiz-adv-x="485" 
d="M99 517v-87h2c35 56 92 97 180 97s158 -54 158 -158v-369h-49v364c0 85 -46 121 -118 121c-92 0 -173 -66 -173 -151v-334h-49v517h49zM218 -204v29c17 8 28 20 28 53v3h-26v71h59v-70c0 -51 -20 -79 -61 -86z" />
    <glyph glyph-name="Ncaron" unicode="&#x147;" horiz-adv-x="649" 
d="M62 0v715h58l332 -505c21 -33 43 -65 58 -92c9 -15 17 -30 25 -43h2v640h50v-715h-55l-328 494c-20 31 -43 66 -60 94c-11 17 -21 33 -30 49h-2v-637h-50zM467 853l-94 -101h-62l-94 101h59l66 -71h2l67 71h56z" />
    <glyph glyph-name="ncaron" unicode="&#x148;" horiz-adv-x="485" 
d="M99 517v-87h2c35 56 92 97 180 97s158 -54 158 -158v-369h-49v364c0 85 -46 121 -118 121c-92 0 -173 -66 -173 -151v-334h-49v517h49zM359 698l-80 -106h-62l-80 106h57l54 -76h2l55 76h54z" />
    <glyph glyph-name="napostrophe" unicode="&#x149;" horiz-adv-x="485" 
d="M-3 558v29c17 8 28 20 28 51v3h-26v74h59v-73c0 -49 -20 -77 -61 -84zM99 517v-87h2c35 56 92 97 180 97s158 -54 158 -158v-369h-49v364c0 85 -46 121 -118 121c-92 0 -173 -66 -173 -151v-334h-49v517h49z" />
    <glyph glyph-name="Omacron" unicode="&#x14c;" horiz-adv-x="710" 
d="M354 -13c-195 0 -320 159 -320 371s125 371 320 371s322 -159 322 -371s-127 -371 -322 -371zM354 34c173 0 268 147 268 324s-95 324 -268 324c-174 0 -266 -147 -266 -324s92 -324 266 -324zM234 762v49h242v-49h-242z" />
    <glyph glyph-name="omacron" unicode="&#x14d;" horiz-adv-x="514" 
d="M257 -13c-144 0 -232 115 -232 271c0 155 88 270 232 270c147 0 232 -115 232 -270c0 -156 -85 -271 -232 -271zM257 29c120 0 182 103 182 229s-62 229 -182 229s-182 -103 -182 -229s62 -229 182 -229zM136 630v49h242v-49h-242z" />
    <glyph glyph-name="Obreve" unicode="&#x14e;" horiz-adv-x="710" 
d="M354 -13c-195 0 -320 159 -320 371s125 371 320 371s322 -159 322 -371s-127 -371 -322 -371zM354 34c173 0 268 147 268 324s-95 324 -268 324c-174 0 -266 -147 -266 -324s92 -324 266 -324zM355 753c-68 0 -114 42 -118 102h46c7 -35 29 -56 72 -56s65 21 72 56h46
c-4 -60 -50 -102 -118 -102z" />
    <glyph glyph-name="obreve" unicode="&#x14f;" horiz-adv-x="514" 
d="M257 -13c-144 0 -232 115 -232 271c0 155 88 270 232 270c147 0 232 -115 232 -270c0 -156 -85 -271 -232 -271zM257 29c120 0 182 103 182 229s-62 229 -182 229s-182 -103 -182 -229s62 -229 182 -229zM257 589c-68 0 -114 46 -118 106h46c7 -35 29 -59 72 -59
s65 24 72 59h46c-4 -60 -50 -106 -118 -106z" />
    <glyph glyph-name="Ohungarumlaut" unicode="&#x150;" horiz-adv-x="710" 
d="M354 -13c-195 0 -320 159 -320 371s125 371 320 371s322 -159 322 -371s-127 -371 -322 -371zM354 34c173 0 268 147 268 324s-95 324 -268 324c-174 0 -266 -147 -266 -324s92 -324 266 -324zM265 753l40 110h60l-57 -110h-43zM394 753l40 110h60l-57 -110h-43z" />
    <glyph glyph-name="ohungarumlaut" unicode="&#x151;" horiz-adv-x="514" 
d="M257 -13c-144 0 -232 115 -232 271c0 155 88 270 232 270c147 0 232 -115 232 -270c0 -156 -85 -271 -232 -271zM257 29c120 0 182 103 182 229s-62 229 -182 229s-182 -103 -182 -229s62 -229 182 -229zM170 588l40 127h60l-57 -127h-43zM299 588l40 127h60l-57 -127
h-43z" />
    <glyph glyph-name="Racute" unicode="&#x154;" horiz-adv-x="615" 
d="M62 0v715h309c132 0 198 -70 198 -191c0 -88 -39 -144 -117 -169v-3c73 -24 98 -80 102 -195c3 -113 18 -146 30 -153v-4h-56c-16 8 -21 36 -26 160c-5 136 -48 171 -158 171h-230v-331h-52zM114 669v-292h240c107 0 162 52 162 145c0 91 -42 147 -151 147h-251zM267 753
l76 110h69l-101 -110h-44z" />
    <glyph glyph-name="racute" unicode="&#x155;" horiz-adv-x="285" 
d="M99 517v-102h2c19 37 43 65 73 82c31 19 56 23 95 23v-49c-28 1 -52 -3 -73 -12c-56 -25 -97 -84 -97 -160v-299h-49v517h49zM126 588l76 127h69l-101 -127h-44z" />
    <glyph glyph-name="uni0156" unicode="&#x156;" horiz-adv-x="615" 
d="M62 0v715h309c132 0 198 -70 198 -191c0 -88 -39 -144 -117 -169v-3c73 -24 98 -80 102 -195c3 -113 18 -146 30 -153v-4h-56c-16 8 -21 36 -26 160c-5 136 -48 171 -158 171h-230v-331h-52zM114 669v-292h240c107 0 162 52 162 145c0 91 -42 147 -151 147h-251z
M269 -204v29c17 8 28 20 28 53v3h-26v71h59v-70c0 -51 -20 -79 -61 -86z" />
    <glyph glyph-name="uni0157" unicode="&#x157;" horiz-adv-x="285" 
d="M99 517v-102h2c19 37 43 65 73 82c31 19 56 23 95 23v-49c-28 1 -52 -3 -73 -12c-56 -25 -97 -84 -97 -160v-299h-49v517h49zM42 -204v29c17 8 28 20 28 53v3h-26v71h59v-70c0 -51 -20 -79 -61 -86z" />
    <glyph glyph-name="Rcaron" unicode="&#x158;" horiz-adv-x="615" 
d="M62 0v715h309c132 0 198 -70 198 -191c0 -88 -39 -144 -117 -169v-3c73 -24 98 -80 102 -195c3 -113 18 -146 30 -153v-4h-56c-16 8 -21 36 -26 160c-5 136 -48 171 -158 171h-230v-331h-52zM114 669v-292h240c107 0 162 52 162 145c0 91 -42 147 -151 147h-251zM424 853
l-94 -101h-62l-94 101h59l66 -71h2l67 71h56z" />
    <glyph glyph-name="rcaron" unicode="&#x159;" horiz-adv-x="285" 
d="M99 517v-102h2c19 37 43 65 73 82c31 19 56 23 95 23v-49c-28 1 -52 -3 -73 -12c-56 -25 -97 -84 -97 -160v-299h-49v517h49zM277 698l-80 -106h-62l-80 106h57l54 -76h2l55 76h54z" />
    <glyph glyph-name="Sacute" unicode="&#x15a;" horiz-adv-x="581" 
d="M302 -13c-179 0 -271 102 -279 239h53c5 -121 92 -193 225 -193c109 0 192 60 192 160c0 104 -55 129 -225 161c-136 24 -219 67 -219 186c0 112 96 189 237 189c145 0 228 -82 239 -199h-52c-11 100 -86 153 -186 153c-117 0 -185 -59 -185 -142c0 -88 57 -115 198 -142
c139 -27 247 -58 247 -202c0 -123 -97 -210 -245 -210zM253 753l76 110h69l-101 -110h-44z" />
    <glyph glyph-name="sacute" unicode="&#x15b;" horiz-adv-x="433" 
d="M221 -13c-136 0 -199 80 -204 169h50c7 -85 67 -127 154 -127c88 0 139 43 139 111c0 55 -27 79 -141 105c-107 24 -185 54 -185 145c0 85 77 138 176 138c120 0 171 -63 184 -147h-48c-7 67 -57 104 -136 104c-84 0 -127 -39 -127 -94c0 -59 47 -78 154 -102
c103 -24 172 -52 172 -150c0 -84 -68 -152 -188 -152zM178 588l76 127h69l-101 -127h-44z" />
    <glyph glyph-name="Scircumflex" unicode="&#x15c;" horiz-adv-x="581" 
d="M302 -13c-179 0 -271 102 -279 239h53c5 -121 92 -193 225 -193c109 0 192 60 192 160c0 104 -55 129 -225 161c-136 24 -219 67 -219 186c0 112 96 189 237 189c145 0 228 -82 239 -199h-52c-11 100 -86 153 -186 153c-117 0 -185 -59 -185 -142c0 -88 57 -115 198 -142
c139 -27 247 -58 247 -202c0 -123 -97 -210 -245 -210zM160 752l94 101h62l94 -101h-59l-66 71h-2l-67 -71h-56z" />
    <glyph glyph-name="scircumflex" unicode="&#x15d;" horiz-adv-x="433" 
d="M221 -13c-136 0 -199 80 -204 169h50c7 -85 67 -127 154 -127c88 0 139 43 139 111c0 55 -27 79 -141 105c-107 24 -185 54 -185 145c0 85 77 138 176 138c120 0 171 -63 184 -147h-48c-7 67 -57 104 -136 104c-84 0 -127 -39 -127 -94c0 -59 47 -78 154 -102
c103 -24 172 -52 172 -150c0 -84 -68 -152 -188 -152zM107 592l80 106h62l80 -106h-57l-54 76h-2l-55 -76h-54z" />
    <glyph glyph-name="Scedilla" unicode="&#x15e;" horiz-adv-x="581" 
d="M252 -184c-39 0 -68 10 -89 22l13 25c23 -8 42 -13 67 -13c37 0 57 14 57 37s-16 29 -43 29c-17 0 -28 -4 -39 -7l-13 22l59 58c-156 13 -233 109 -241 237h53c5 -121 92 -193 225 -193c109 0 192 60 192 160c0 104 -55 129 -225 161c-136 24 -219 67 -219 186
c0 112 96 189 237 189c145 0 228 -82 239 -199h-52c-11 100 -86 153 -186 153c-117 0 -185 -59 -185 -142c0 -88 57 -115 198 -142c139 -27 247 -58 247 -202c0 -120 -94 -207 -239 -210l-40 -37v-2c47 3 80 -20 80 -61c0 -47 -40 -71 -96 -71z" />
    <glyph glyph-name="scedilla" unicode="&#x15f;" horiz-adv-x="433" 
d="M185 -184c-39 0 -68 10 -89 22l13 25c23 -8 42 -13 67 -13c37 0 57 14 57 37s-16 29 -43 29c-17 0 -28 -4 -39 -7l-13 22l58 57c-116 8 -176 85 -179 168h50c7 -85 67 -127 154 -127c88 0 139 43 139 111c0 55 -27 79 -141 105c-107 24 -185 54 -185 145
c0 85 77 138 176 138c120 0 171 -63 184 -147h-48c-7 67 -57 104 -136 104c-84 0 -127 -39 -127 -94c0 -59 47 -78 154 -102c103 -24 172 -52 172 -150c0 -80 -59 -143 -167 -151l-41 -38v-2c47 3 80 -20 80 -61c0 -47 -40 -71 -96 -71z" />
    <glyph glyph-name="uni0162" unicode="&#x162;" horiz-adv-x="574" 
d="M17 668v47h540v-47h-244v-668h-52v668h-244zM257 -204v29c17 8 28 20 28 53v3h-26v71h59v-70c0 -51 -20 -79 -61 -86z" />
    <glyph glyph-name="uni0163" unicode="&#x163;" horiz-adv-x="266" 
d="M14 476v41h80v156h49v-156h94v-41h-94v-388c0 -39 14 -50 49 -50c13 0 30 4 39 9h3v-42c-16 -7 -31 -9 -52 -9c-53 0 -88 27 -88 88v392h-80zM129 -204v29c17 8 28 20 28 53v3h-26v71h59v-70c0 -51 -20 -79 -61 -86z" />
    <glyph glyph-name="uni021A" unicode="&#x21a;" horiz-adv-x="574" 
d="M17 668v47h540v-47h-244v-668h-52v668h-244zM257 -204v29c17 8 28 20 28 53v3h-26v71h59v-70c0 -51 -20 -79 -61 -86z" />
    <glyph glyph-name="uni021B" unicode="&#x21b;" horiz-adv-x="266" 
d="M14 476v41h80v156h49v-156h94v-41h-94v-388c0 -39 14 -50 49 -50c13 0 30 4 39 9h3v-42c-16 -7 -31 -9 -52 -9c-53 0 -88 27 -88 88v392h-80zM129 -204v29c17 8 28 20 28 53v3h-26v71h59v-70c0 -51 -20 -79 -61 -86z" />
    <glyph glyph-name="Tcaron" unicode="&#x164;" horiz-adv-x="574" 
d="M17 668v47h540v-47h-244v-668h-52v668h-244zM412 853l-94 -101h-62l-94 101h59l66 -71h2l67 71h56z" />
    <glyph glyph-name="tcaron" unicode="&#x165;" horiz-adv-x="266" 
d="M14 476v41h80v156h49v-156h94v-41h-94v-388c0 -39 14 -50 49 -50c13 0 30 4 39 9h3v-42c-16 -7 -31 -9 -52 -9c-53 0 -88 27 -88 88v392h-80zM198 558v29c17 8 28 19 28 54h-26v74h59v-73c0 -49 -20 -77 -61 -84z" />
    <glyph glyph-name="Tbar" unicode="&#x166;" horiz-adv-x="574" 
d="M17 668v47h540v-47h-244v-262h130v-44h-130v-362h-52v362h-130v44h130v262h-244z" />
    <glyph glyph-name="tbar" unicode="&#x167;" horiz-adv-x="266" 
d="M14 308v41h80v127h-80v41h80v156h49v-156h94v-41h-94v-127h94v-41h-94v-220c0 -39 14 -50 49 -50c13 0 30 4 39 9h3v-42c-16 -7 -31 -9 -52 -9c-53 0 -88 27 -88 88v224h-80z" />
    <glyph glyph-name="Utilde" unicode="&#x168;" horiz-adv-x="622" 
d="M308 -11c-156 0 -252 77 -252 236v490h52v-486c0 -140 72 -194 203 -194c123 0 203 54 203 194v486h52v-490c0 -163 -103 -236 -258 -236zM370 760c-41 0 -87 43 -117 43c-15 0 -28 -14 -31 -41h-42c5 57 34 84 73 84c42 0 85 -43 115 -43c17 0 30 14 33 41h42
c-4 -56 -34 -84 -73 -84z" />
    <glyph glyph-name="utilde" unicode="&#x169;" horiz-adv-x="479" 
d="M429 0h-49v79h-2c-35 -50 -78 -91 -166 -91c-95 0 -166 57 -166 160v369h49v-364c0 -85 49 -123 126 -123c91 0 159 68 159 160v327h49v-517zM299 600c-41 0 -87 43 -117 43c-15 0 -28 -14 -31 -41h-42c5 57 34 84 73 84c42 0 85 -43 115 -43c17 0 30 14 33 41h42
c-4 -56 -34 -84 -73 -84z" />
    <glyph glyph-name="Umacron" unicode="&#x16a;" horiz-adv-x="622" 
d="M308 -11c-156 0 -252 77 -252 236v490h52v-486c0 -140 72 -194 203 -194c123 0 203 54 203 194v486h52v-490c0 -163 -103 -236 -258 -236zM190 762v49h242v-49h-242z" />
    <glyph glyph-name="umacron" unicode="&#x16b;" horiz-adv-x="479" 
d="M429 0h-49v79h-2c-35 -50 -78 -91 -166 -91c-95 0 -166 57 -166 160v369h49v-364c0 -85 49 -123 126 -123c91 0 159 68 159 160v327h49v-517zM119 630v49h242v-49h-242z" />
    <glyph glyph-name="Ubreve" unicode="&#x16c;" horiz-adv-x="622" 
d="M308 -11c-156 0 -252 77 -252 236v490h52v-486c0 -140 72 -194 203 -194c123 0 203 54 203 194v486h52v-490c0 -163 -103 -236 -258 -236zM311 753c-68 0 -114 42 -118 102h46c7 -35 29 -56 72 -56s65 21 72 56h46c-4 -60 -50 -102 -118 -102z" />
    <glyph glyph-name="ubreve" unicode="&#x16d;" horiz-adv-x="479" 
d="M429 0h-49v79h-2c-35 -50 -78 -91 -166 -91c-95 0 -166 57 -166 160v369h49v-364c0 -85 49 -123 126 -123c91 0 159 68 159 160v327h49v-517zM240 589c-68 0 -114 46 -118 106h46c7 -35 29 -59 72 -59s65 24 72 59h46c-4 -60 -50 -106 -118 -106z" />
    <glyph glyph-name="Uring" unicode="&#x16e;" horiz-adv-x="622" 
d="M308 -11c-156 0 -252 77 -252 236v490h52v-486c0 -140 72 -194 203 -194c123 0 203 54 203 194v486h52v-490c0 -163 -103 -236 -258 -236zM311 730c-48 0 -87 37 -87 85s39 85 87 85s87 -37 87 -85s-39 -85 -87 -85zM311 763c29 0 49 23 49 52s-20 52 -49 52
s-49 -23 -49 -52s20 -52 49 -52z" />
    <glyph glyph-name="uring" unicode="&#x16f;" horiz-adv-x="479" 
d="M429 0h-49v79h-2c-35 -50 -78 -91 -166 -91c-95 0 -166 57 -166 160v369h49v-364c0 -85 49 -123 126 -123c91 0 159 68 159 160v327h49v-517zM240 576c-48 0 -87 37 -87 85s39 85 87 85s87 -37 87 -85s-39 -85 -87 -85zM240 609c29 0 49 23 49 52s-20 52 -49 52
s-49 -23 -49 -52s20 -52 49 -52z" />
    <glyph glyph-name="Uhungarumlaut" unicode="&#x170;" horiz-adv-x="622" 
d="M308 -11c-156 0 -252 77 -252 236v490h52v-486c0 -140 72 -194 203 -194c123 0 203 54 203 194v486h52v-490c0 -163 -103 -236 -258 -236zM221 753l40 110h60l-57 -110h-43zM350 753l40 110h60l-57 -110h-43z" />
    <glyph glyph-name="uhungarumlaut" unicode="&#x171;" horiz-adv-x="479" 
d="M429 0h-49v79h-2c-35 -50 -78 -91 -166 -91c-95 0 -166 57 -166 160v369h49v-364c0 -85 49 -123 126 -123c91 0 159 68 159 160v327h49v-517zM153 588l40 127h60l-57 -127h-43zM282 588l40 127h60l-57 -127h-43z" />
    <glyph glyph-name="Uogonek" unicode="&#x172;" horiz-adv-x="622" 
d="M403 -125h3v-35c-13 -8 -32 -15 -59 -15c-57 0 -85 27 -85 70c0 39 29 71 62 94h-16c-156 0 -252 77 -252 236v490h52v-486c0 -140 72 -194 203 -194c123 0 203 54 203 194v486h52v-490c0 -113 -51 -179 -131 -214c-25 -11 -51 -18 -76 -38c-31 -24 -47 -48 -47 -75
c0 -23 14 -34 41 -34c19 0 33 4 50 11z" />
    <glyph glyph-name="uogonek" unicode="&#x173;" horiz-adv-x="479" 
d="M435 -126h3v-34c-13 -8 -31 -15 -58 -15c-57 0 -84 27 -84 70c0 45 40 84 84 109v75h-2c-35 -50 -78 -91 -166 -91c-95 0 -166 57 -166 160v369h49v-364c0 -85 49 -123 126 -123c91 0 159 68 159 160v327h49v-516c-53 -36 -83 -67 -83 -103c0 -23 13 -35 40 -35
c19 0 32 4 49 11z" />
    <glyph glyph-name="Wcircumflex" unicode="&#x174;" horiz-adv-x="857" 
d="M204 0l-193 715h52l132 -494c7 -28 17 -66 24 -98c4 -19 8 -37 13 -56h2c5 18 9 36 13 53c7 31 16 66 23 93l133 502h55l134 -500c7 -27 16 -63 24 -94c4 -17 8 -35 13 -54h2c4 19 8 37 12 55c7 31 16 70 24 99l129 494h50l-190 -715h-56l-140 532c-7 24 -14 54 -19 78
c-3 14 -6 28 -9 43h-2l-9 -42c-5 -24 -12 -55 -19 -79l-140 -532h-58zM303 752l94 101h62l94 -101h-59l-66 71h-2l-67 -71h-56z" />
    <glyph glyph-name="wcircumflex" unicode="&#x175;" horiz-adv-x="695" 
d="M161 0l-147 517h51l88 -320c8 -29 17 -66 24 -97c4 -18 8 -36 13 -55h2c4 18 8 36 13 53c7 31 17 65 24 92l89 327h55l86 -327c7 -27 15 -61 22 -92c4 -17 8 -35 13 -53h2c5 19 9 37 14 55c8 31 19 69 27 97l95 320h49l-158 -517h-59l-90 342c-7 27 -14 57 -19 81l-9 42
h-2l-9 -42c-7 -24 -13 -54 -20 -81l-93 -342h-61zM235 592l80 106h62l80 -106h-57l-54 76h-2l-55 -76h-54z" />
    <glyph glyph-name="Ycircumflex" unicode="&#x176;" horiz-adv-x="579" 
d="M263 0v318l-258 397h57l227 -350h2l227 350h56l-259 -399v-316h-52zM164 752l94 101h62l94 -101h-59l-66 71h-2l-67 -71h-56z" />
    <glyph glyph-name="ycircumflex" unicode="&#x177;" horiz-adv-x="455" 
d="M96 -171c-19 0 -28 3 -39 6v44h2c8 -3 18 -5 41 -5c43 0 74 19 93 75l15 43l-198 525h51l126 -342c9 -27 21 -57 30 -84l15 -45h2c5 15 9 30 14 45c8 27 19 57 28 84l120 342h50l-208 -579c-31 -84 -71 -109 -142 -109zM120 592l80 106h62l80 -106h-57l-54 76h-2l-55 -76
h-54z" />
    <glyph glyph-name="Zacute" unicode="&#x179;" horiz-adv-x="573" 
d="M24 0v51l442 616v3h-414v45h475v-48l-443 -618v-3h459v-46h-519zM262 753l76 110h69l-101 -110h-44z" />
    <glyph glyph-name="zacute" unicode="&#x17a;" horiz-adv-x="431" 
d="M24 0v45l312 426v3h-290v43h352v-41l-315 -430v-3h323v-43h-382zM187 588l76 127h69l-101 -127h-44z" />
    <glyph glyph-name="Zdotaccent" unicode="&#x17b;" horiz-adv-x="573" 
d="M24 0v51l442 616v3h-414v45h475v-48l-443 -618v-3h459v-46h-519zM270 755v80h49v-80h-49z" />
    <glyph glyph-name="zdotaccent" unicode="&#x17c;" horiz-adv-x="431" 
d="M24 0v45l312 426v3h-290v43h352v-41l-315 -430v-3h323v-43h-382zM203 635v80h49v-80h-49z" />
    <glyph glyph-name="Zcaron" unicode="&#x17d;" horiz-adv-x="573" 
d="M24 0v51l442 616v3h-414v45h475v-48l-443 -618v-3h459v-46h-519zM419 853l-94 -101h-62l-94 101h59l66 -71h2l67 71h56z" />
    <glyph glyph-name="zcaron" unicode="&#x17e;" horiz-adv-x="431" 
d="M24 0v45l312 426v3h-290v43h352v-41l-315 -430v-3h323v-43h-382zM338 698l-80 -106h-62l-80 106h57l54 -76h2l55 76h54z" />
    <glyph glyph-name="uni0218" unicode="&#x218;" horiz-adv-x="581" 
d="M302 -13c-179 0 -271 102 -279 239h53c5 -121 92 -193 225 -193c109 0 192 60 192 160c0 104 -55 129 -225 161c-136 24 -219 67 -219 186c0 112 96 189 237 189c145 0 228 -82 239 -199h-52c-11 100 -86 153 -186 153c-117 0 -185 -59 -185 -142c0 -88 57 -115 198 -142
c139 -27 247 -58 247 -202c0 -123 -97 -210 -245 -210zM255 -204v29c17 8 28 20 28 53v3h-26v71h59v-70c0 -51 -20 -79 -61 -86z" />
    <glyph glyph-name="uni0219" unicode="&#x219;" horiz-adv-x="433" 
d="M221 -13c-136 0 -199 80 -204 169h50c7 -85 67 -127 154 -127c88 0 139 43 139 111c0 55 -27 79 -141 105c-107 24 -185 54 -185 145c0 85 77 138 176 138c120 0 171 -63 184 -147h-48c-7 67 -57 104 -136 104c-84 0 -127 -39 -127 -94c0 -59 47 -78 154 -102
c103 -24 172 -52 172 -150c0 -84 -68 -152 -188 -152zM188 -204v29c17 8 28 20 28 53v3h-26v71h59v-70c0 -51 -20 -79 -61 -86z" />
    <glyph glyph-name="caron" unicode="&#x2c7;" horiz-adv-x="500" 
d="M361 698l-80 -106h-62l-80 106h57l54 -76h2l55 76h54z" />
    <glyph glyph-name="uni02C9" unicode="&#x2c9;" horiz-adv-x="500" 
d="M129 630v49h242v-49h-242z" />
    <glyph glyph-name="breve" unicode="&#x2d8;" horiz-adv-x="500" 
d="M269 589c-68 0 -114 46 -118 106h46c7 -35 29 -59 72 -59s65 24 72 59h46c-4 -60 -50 -106 -118 -106z" />
    <glyph glyph-name="dotaccent" unicode="&#x2d9;" horiz-adv-x="520" 
d="M235 635v80h49v-80h-49z" />
    <glyph glyph-name="ring" unicode="&#x2da;" horiz-adv-x="509" 
d="M254 576c-48 0 -87 37 -87 85s39 85 87 85s87 -37 87 -85s-39 -85 -87 -85zM254 609c29 0 49 23 49 52s-20 52 -49 52s-49 -23 -49 -52s20 -52 49 -52z" />
    <glyph glyph-name="ogonek" unicode="&#x2db;" horiz-adv-x="500" 
d="M285 -125h3v-35c-13 -8 -32 -15 -59 -15c-57 0 -85 27 -85 70c0 45 42 84 82 105h51c-51 -35 -83 -66 -83 -102c0 -23 14 -34 41 -34c19 0 33 4 50 11z" />
    <glyph glyph-name="hungarumlaut" unicode="&#x2dd;" horiz-adv-x="500" 
d="M154 588l40 127h60l-57 -127h-43zM283 588l40 127h60l-57 -127h-43z" />
    <glyph glyph-name="uni0394" unicode="&#x394;" horiz-adv-x="624" 
d="M22 0v41l260 674h59l261 -674v-41h-580zM273 557l-197 -513h471l-196 513c-8 20 -18 47 -26 68c-5 12 -9 25 -13 38h-2l-12 -36c-7 -21 -17 -47 -25 -70z" />
    <glyph glyph-name="uni03A9" unicode="&#x3a9;" horiz-adv-x="690" 
d="M88 371c0 -144 73 -275 201 -323v-48h-251v46h172v2c-108 56 -176 174 -176 323c0 212 124 358 310 358c187 0 312 -146 312 -358c0 -149 -68 -267 -176 -323v-2h172v-46h-251v48c134 48 201 179 201 323c0 177 -91 311 -258 311s-256 -134 -256 -311z" />
    <glyph glyph-name="uni03BC" unicode="&#x3bc;" horiz-adv-x="483" 
d="M433 0h-49v79h-2c-35 -50 -78 -91 -166 -91c-47 0 -87 14 -115 54h-2v-208h-49v683h49v-364c0 -85 49 -123 126 -123c91 0 159 68 159 160v327h49v-517z" />
    <glyph glyph-name="pi" unicode="&#x3c0;" horiz-adv-x="559" 
d="M525 517v-41h-81v-388c0 -39 14 -50 49 -50c13 0 30 4 39 9h3v-42c-16 -7 -31 -9 -52 -9c-53 0 -88 27 -88 88v392h-246v-476h-49v476h-82v41h507z" />
    <glyph glyph-name="fraction" unicode="&#x2044;" horiz-adv-x="193" 
d="M-186 0l512 715h53l-512 -715h-53z" />
    <glyph glyph-name="uni2113" unicode="&#x2113;" horiz-adv-x="303" 
d="M268 588c0 -195 -49 -316 -146 -381v-94c0 -51 13 -75 60 -75c23 0 46 7 58 16h3v-42c-19 -11 -41 -16 -66 -16c-68 0 -104 32 -104 112v72c-17 -7 -35 -13 -54 -17v40c20 7 38 12 54 19v379c0 73 33 122 101 122c56 0 94 -36 94 -135zM122 601v-347c8 7 15 15 23 24
c51 64 78 159 78 310c0 75 -20 96 -49 96c-31 0 -52 -22 -52 -83z" />
    <glyph glyph-name="Omega" unicode="&#x2126;" horiz-adv-x="690" 
d="M88 371c0 -144 73 -275 201 -323v-48h-251v46h172v2c-108 56 -176 174 -176 323c0 212 124 358 310 358c187 0 312 -146 312 -358c0 -149 -68 -267 -176 -323v-2h172v-46h-251v48c134 48 201 179 201 323c0 177 -91 311 -258 311s-256 -134 -256 -311z" />
    <glyph glyph-name="estimated" unicode="&#x212e;" horiz-adv-x="621" 
d="M591 301h-431v-215c39 -39 90 -59 167 -59c119 0 187 58 218 159h42c-27 -114 -112 -197 -260 -197c-189 0 -298 132 -298 320c0 187 121 318 293 318c72 0 129 -22 173 -59c73 -63 97 -151 96 -267zM322 592c-72 0 -127 -25 -162 -61v-196h303v209
c-31 29 -78 48 -141 48z" />
    <glyph glyph-name="partialdiff" unicode="&#x2202;" horiz-adv-x="495" 
d="M411 396c-21 120 -88 257 -288 281v43c271 -24 342 -238 342 -413c0 -190 -78 -319 -230 -319c-128 0 -205 95 -205 226c0 157 93 269 225 269c67 0 123 -27 156 -87zM84 215c0 -88 41 -185 151 -185c111 0 176 110 176 234c0 99 -55 175 -156 175
c-108 0 -171 -92 -171 -224z" />
    <glyph glyph-name="Delta" unicode="&#x2206;" horiz-adv-x="624" 
d="M22 0v41l260 674h59l261 -674v-41h-580zM273 557l-197 -513h471l-196 513c-8 20 -18 47 -26 68c-5 12 -9 25 -13 38h-2l-12 -36c-7 -21 -17 -47 -25 -70z" />
    <glyph glyph-name="product" unicode="&#x220f;" horiz-adv-x="636" 
d="M517 668h-398v-768h-52v815h502v-815h-52v768z" />
    <glyph glyph-name="summation" unicode="&#x2211;" horiz-adv-x="574" 
d="M538 -100h-496v40l315 387v2l-315 334v52h496v-46h-433v-2l303 -322v-31l-303 -367v-2h433v-45z" />
    <glyph glyph-name="minus" unicode="&#x2212;" horiz-adv-x="510" 
d="M56 303v46h398v-46h-398z" />
    <glyph glyph-name="uni2215" unicode="&#x2215;" horiz-adv-x="193" 
d="M-186 0l512 715h53l-512 -715h-53z" />
    <glyph glyph-name="uni2219" unicode="&#x2219;" horiz-adv-x="143" 
d="M41 271v79h61v-79h-61z" />
    <glyph glyph-name="radical" unicode="&#x221a;" horiz-adv-x="554" 
d="M12 260v44h115l85 -217c11 -28 22 -60 31 -87c5 -15 10 -30 15 -44h2c4 15 8 31 12 47c7 27 17 61 26 89l195 623h50l-256 -815h-55l-145 360h-75z" />
    <glyph glyph-name="infinity" unicode="&#x221e;" horiz-adv-x="715" 
d="M188 134c-102 0 -150 79 -150 171c0 91 48 170 150 170c82 0 132 -60 172 -127c40 67 88 127 166 127c95 0 151 -69 151 -170c0 -103 -56 -171 -151 -171c-78 0 -126 60 -166 127c-40 -67 -90 -127 -172 -127zM188 434c-69 0 -100 -60 -100 -129c0 -72 31 -129 100 -129
c67 0 107 61 147 128c-40 67 -80 130 -147 130zM526 176c69 0 101 57 101 129c0 69 -32 129 -101 129c-63 0 -100 -63 -140 -130c40 -67 77 -128 140 -128z" />
    <glyph glyph-name="integral" unicode="&#x222b;" horiz-adv-x="369" 
d="M209 622v-678c0 -76 -47 -120 -111 -120c-21 0 -41 4 -58 11v43h3c11 -7 31 -11 50 -11c39 0 67 24 67 76v678c0 76 47 120 111 120c21 0 41 -4 58 -11v-43h-3c-11 7 -31 11 -50 11c-39 0 -67 -24 -67 -76z" />
    <glyph glyph-name="approxequal" unicode="&#x2248;" horiz-adv-x="510" 
d="M352 332c-71 0 -147 52 -199 52c-32 0 -53 -20 -56 -56h-46c7 68 43 102 102 102c63 0 133 -52 198 -52c39 0 60 19 63 56h45c-5 -68 -43 -102 -107 -102zM352 187c-71 0 -147 52 -199 52c-32 0 -53 -20 -56 -56h-46c7 68 43 102 102 102c63 0 133 -52 198 -52
c39 0 60 19 63 56h45c-5 -68 -43 -102 -107 -102z" />
    <glyph glyph-name="notequal" unicode="&#x2260;" horiz-adv-x="510" 
d="M56 361v46h222l56 118h48l-56 -118h128v-46h-150l-49 -104h199v-46h-220l-58 -123h-48l58 123h-130v46h151l49 104h-200z" />
    <glyph glyph-name="lessequal" unicode="&#x2264;" horiz-adv-x="491" 
d="M437 117l-387 166v57l387 166v-49l-343 -145v-2l343 -144v-49zM50 0v46h387v-46h-387z" />
    <glyph glyph-name="greaterequal" unicode="&#x2265;" horiz-adv-x="491" 
d="M54 506l387 -166v-57l-387 -166v49l343 145v2l-343 144v49zM54 0v46h387v-46h-387z" />
    <glyph glyph-name="lozenge" unicode="&#x25ca;" horiz-adv-x="520" 
d="M485 356l-200 -356h-49l-201 357l200 358h49zM260 52h2l168 303l-170 308h-2l-168 -305z" />
    <glyph glyph-name="fi" unicode="&#xfb01;" horiz-adv-x="401" 
d="M12 476v41h77v98c0 69 37 104 111 104h31v-43h-28c-51 0 -65 -23 -65 -62v-97h96v-41h-96v-476h-49v476h-77zM299 0v517h49v-517h-49zM299 635v80h49v-80h-49z" />
    <glyph glyph-name="fl" unicode="&#xfb02;" horiz-adv-x="401" 
d="M12 476v41h77v98c0 69 37 104 111 104h31v-43h-28c-51 0 -65 -23 -65 -62v-97h96v-41h-96v-476h-49v476h-77zM299 0v715h49v-715h-49z" />
    </font>
</defs>
</svg>
